<?xml version="1.0" encoding="UTF-8" standalone="no"?>
<!-- Created with Inkscape (http://www.inkscape.org/) -->

<svg
   xmlns:dc="http://purl.org/dc/elements/1.1/"
   xmlns:cc="http://creativecommons.org/ns#"
   xmlns:rdf="http://www.w3.org/1999/02/22-rdf-syntax-ns#"
   xmlns:svg="http://www.w3.org/2000/svg"
   xmlns="http://www.w3.org/2000/svg"
   xmlns:sodipodi="http://sodipodi.sourceforge.net/DTD/sodipodi-0.dtd"
   xmlns:inkscape="http://www.inkscape.org/namespaces/inkscape"
   id="svg2"
   sodipodi:version="0.32"
   inkscape:version="0.91 r13725"
   width="310"
   height="260"
   version="1.0"
   sodipodi:docname="Simple_Torus.svg"
   inkscape:output_extension="org.inkscape.output.svg.inkscape"
   inkscape:export-filename="/home/federico/appunti/quantumHallEffect/Simple_Torus.png"
   inkscape:export-xdpi="90"
   inkscape:export-ydpi="90">
  <sodipodi:namedview
     inkscape:window-height="1056"
     inkscape:window-width="1855"
     inkscape:pageshadow="2"
     inkscape:pageopacity="0.0"
     guidetolerance="10.0"
     gridtolerance="10.0"
     objecttolerance="10.0"
     borderopacity="1.0"
     bordercolor="#666666"
     pagecolor="#ffffff"
     id="base"
     inkscape:zoom="2.8284271"
     inkscape:cx="176.14285"
     inkscape:cy="118.61048"
     inkscape:window-x="65"
     inkscape:window-y="24"
     inkscape:current-layer="svg2"
     height="260px"
     width="310px"
     showgrid="false"
     inkscape:window-maximized="1" />
  <metadata
     id="metadata7">
    <rdf:RDF>
      <cc:Work
         rdf:about="">
        <dc:format>image/svg+xml</dc:format>
        <dc:type
           rdf:resource="http://purl.org/dc/dcmitype/StillImage" />
      </cc:Work>
    </rdf:RDF>
  </metadata>
  <defs
     id="defs5">
    <marker
       inkscape:isstock="true"
       style="overflow:visible;"
       id="Arrow2Send"
       refX="0.0"
       refY="0.0"
       orient="auto"
       inkscape:stockid="Arrow2Send">
      <path
         transform="scale(0.3) rotate(180) translate(-2.3,0)"
         d="M 8.7185878,4.0337352 L -2.2072895,0.016013256 L 8.7185884,-4.0017078 C 6.9730900,-1.6296469 6.9831476,1.6157441 8.7185878,4.0337352 z "
         style="fill-rule:evenodd;stroke-width:0.625;stroke-linejoin:round;stroke:#0000ff;stroke-opacity:1;fill:#0000ff;fill-opacity:1"
         id="path4769" />
    </marker>
    <filter
       height="1.1129769"
       y="-0.056488428"
       width="1.0834588"
       x="-0.04172939"
       id="filter4438"
       style="color-interpolation-filters:sRGB"
       inkscape:collect="always">
      <feGaussianBlur
         id="feGaussianBlur4440"
         stdDeviation="3.835081"
         inkscape:collect="always" />
    </filter>
    <filter
       height="1.0842471"
       y="-0.04212353"
       width="29.643871"
       x="-14.321935"
       id="filter4672"
       style="color-interpolation-filters:sRGB"
       inkscape:collect="always">
      <feGaussianBlur
         id="feGaussianBlur4674"
         stdDeviation="4.2196599"
         inkscape:collect="always" />
    </filter>
    <marker
       inkscape:isstock="true"
       style="overflow:visible"
       id="Arrow2Send-6"
       refX="0"
       refY="0"
       orient="auto"
       inkscape:stockid="Arrow2Send">
      <path
         transform="matrix(-0.3,0,0,-0.3,0.69,0)"
         d="M 8.7185878,4.0337352 -2.2072895,0.01601326 8.7185884,-4.0017078 c -1.7454984,2.3720609 -1.7354408,5.6174519 -6e-7,8.035443 z"
         style="fill:#000000;fill-opacity:1;fill-rule:evenodd;stroke:#000000;stroke-width:0.625;stroke-linejoin:round;stroke-opacity:1"
         id="path4769-2"
         inkscape:connector-curvature="0" />
    </marker>
    <marker
       inkscape:isstock="true"
       style="overflow:visible"
       id="Arrow2Send-1"
       refX="0"
       refY="0"
       orient="auto"
       inkscape:stockid="Arrow2Send">
      <path
         transform="matrix(-0.3,0,0,-0.3,0.69,0)"
         d="M 8.7185878,4.0337352 -2.2072895,0.01601326 8.7185884,-4.0017078 c -1.7454984,2.3720609 -1.7354408,5.6174519 -6e-7,8.035443 z"
         style="fill:#0000ff;fill-opacity:1;fill-rule:evenodd;stroke:#0000ff;stroke-width:0.625;stroke-linejoin:round;stroke-opacity:1"
         id="path4769-27"
         inkscape:connector-curvature="0" />
    </marker>
    <marker
       inkscape:isstock="true"
       style="overflow:visible"
       id="Arrow2Send-1-9"
       refX="0"
       refY="0"
       orient="auto"
       inkscape:stockid="Arrow2Send">
      <path
         transform="matrix(-0.3,0,0,-0.3,0.69,0)"
         d="M 8.7185878,4.0337352 -2.2072895,0.01601326 8.7185884,-4.0017078 c -1.7454984,2.3720609 -1.7354408,5.6174519 -6e-7,8.035443 z"
         style="fill:#0000ff;fill-opacity:1;fill-rule:evenodd;stroke:#0000ff;stroke-width:0.625;stroke-linejoin:round;stroke-opacity:1"
         id="path4769-27-3"
         inkscape:connector-curvature="0" />
    </marker>
    <marker
       inkscape:isstock="true"
       style="overflow:visible"
       id="Arrow2Send-1-0"
       refX="0"
       refY="0"
       orient="auto"
       inkscape:stockid="Arrow2Send">
      <path
         transform="matrix(-0.3,0,0,-0.3,0.69,0)"
         d="M 8.7185878,4.0337352 -2.2072895,0.01601326 8.7185884,-4.0017078 c -1.7454984,2.3720609 -1.7354408,5.6174519 -6e-7,8.035443 z"
         style="fill:#0000ff;fill-opacity:1;fill-rule:evenodd;stroke:#0000ff;stroke-width:0.625;stroke-linejoin:round;stroke-opacity:1"
         id="path4769-27-6"
         inkscape:connector-curvature="0" />
    </marker>
    <marker
       inkscape:isstock="true"
       style="overflow:visible"
       id="Arrow2Send-1-9-6"
       refX="0"
       refY="0"
       orient="auto"
       inkscape:stockid="Arrow2Send">
      <path
         transform="matrix(-0.3,0,0,-0.3,0.69,0)"
         d="M 8.7185878,4.0337352 -2.2072895,0.01601326 8.7185884,-4.0017078 c -1.7454984,2.3720609 -1.7354408,5.6174519 -6e-7,8.035443 z"
         style="fill:#000000;fill-opacity:0;fill-rule:evenodd;stroke:#0000ff;stroke-width:0.625;stroke-linejoin:round;stroke-opacity:1"
         id="path4769-27-3-1"
         inkscape:connector-curvature="0" />
    </marker>
    <marker
       inkscape:isstock="true"
       style="overflow:visible"
       id="Arrow2Send-7"
       refX="0"
       refY="0"
       orient="auto"
       inkscape:stockid="Arrow2Send">
      <path
         transform="matrix(-0.3,0,0,-0.3,0.69,0)"
         d="M 8.7185878,4.0337352 -2.2072895,0.01601326 8.7185884,-4.0017078 c -1.7454984,2.3720609 -1.7354408,5.6174519 -6e-7,8.035443 z"
         style="fill:#0000ff;fill-opacity:1;fill-rule:evenodd;stroke:#0000ff;stroke-width:0.625;stroke-linejoin:round;stroke-opacity:1"
         id="path4769-9"
         inkscape:connector-curvature="0" />
    </marker>
    <marker
       inkscape:isstock="true"
       style="overflow:visible"
       id="Arrow2Send-7-0"
       refX="0"
       refY="0"
       orient="auto"
       inkscape:stockid="Arrow2Send">
      <path
         transform="matrix(-0.3,0,0,-0.3,0.69,0)"
         d="M 8.7185878,4.0337352 -2.2072895,0.01601326 8.7185884,-4.0017078 c -1.7454984,2.3720609 -1.7354408,5.6174519 -6e-7,8.035443 z"
         style="fill:#0000ff;fill-opacity:1;fill-rule:evenodd;stroke:#0000ff;stroke-width:0.625;stroke-linejoin:round;stroke-opacity:1"
         id="path4769-9-2"
         inkscape:connector-curvature="0" />
    </marker>
    <marker
       inkscape:isstock="true"
       style="overflow:visible"
       id="Arrow2Send-7-0-7"
       refX="0"
       refY="0"
       orient="auto"
       inkscape:stockid="Arrow2Send">
      <path
         transform="matrix(-0.3,0,0,-0.3,0.69,0)"
         d="M 8.7185878,4.0337352 -2.2072895,0.01601326 8.7185884,-4.0017078 c -1.7454984,2.3720609 -1.7354408,5.6174519 -6e-7,8.035443 z"
         style="fill:#0000ff;fill-opacity:1;fill-rule:evenodd;stroke:#0000ff;stroke-width:0.625;stroke-linejoin:round;stroke-opacity:1"
         id="path4769-9-2-5"
         inkscape:connector-curvature="0" />
    </marker>
    <marker
       inkscape:isstock="true"
       style="overflow:visible"
       id="Arrow2Send-7-0-7-2"
       refX="0"
       refY="0"
       orient="auto"
       inkscape:stockid="Arrow2Send">
      <path
         transform="matrix(-0.3,0,0,-0.3,0.69,0)"
         d="M 8.7185878,4.0337352 -2.2072895,0.01601326 8.7185884,-4.0017078 c -1.7454984,2.3720609 -1.7354408,5.6174519 -6e-7,8.035443 z"
         style="fill:#0000ff;fill-opacity:1;fill-rule:evenodd;stroke:#0000ff;stroke-width:0.625;stroke-linejoin:round;stroke-opacity:1"
         id="path4769-9-2-5-2"
         inkscape:connector-curvature="0" />
    </marker>
  </defs>
  <path
     sodipodi:nodetypes="csssc"
     id="path4256"
     d="M 79.35996,37.15355 C 150.26961,6.29387 242.37866,22.9555 284.96055,74.34474 C 327.54243,125.73395 304.55179,192.48671 233.64216,223.34643 C 162.73251,254.20611 70.62346,237.54447 28.04157,186.15523 C -14.482428,134.83588 8.98226,67.93526 79.70453,37.00801"
     style="fill:none;fill-opacity:1;stroke:#000000;stroke-width:1.52023709;stroke-miterlimit:4;stroke-opacity:1"
     inkscape:export-xdpi="90"
     inkscape:export-ydpi="90" />
  <path
     id="path4290"
     d="M 97.25133,30.69982 C 151.71433,12.20316 222.4598,22.1898 255.16535,52.99151 C 287.87087,83.79316 270.21262,123.80344 215.74962,142.30016 C 161.28663,160.79682 90.54115,150.81018 57.83561,120.00847 C 25.17454,89.24867 42.72166,49.30871 97.04075,30.77152"
     style="fill:none;fill-opacity:1;stroke:#000000;stroke-width:1.03147984;stroke-miterlimit:4;stroke-opacity:1"
     inkscape:export-xdpi="90"
     inkscape:export-ydpi="90" />
  <path
     sodipodi:nodetypes="cc"
     id="path4294"
     d="M 103.25,118 C 79.4138,52.54778 237.92737,61.78338 210.875,116.75"
     style="fill:none;fill-rule:evenodd;stroke:#000000;stroke-width:1px;stroke-linecap:butt;stroke-linejoin:miter;stroke-opacity:1"
     inkscape:export-xdpi="90"
     inkscape:export-ydpi="90" />
  <path
     sodipodi:nodetypes="cc"
     id="path4298"
     d="M 44,202 C 107.29221,238.54795 199.22851,251.61269 278.33579,193.51777"
     style="fill:none;fill-rule:evenodd;stroke:#000000;stroke-width:1px;stroke-linecap:butt;stroke-linejoin:miter;stroke-opacity:1"
     inkscape:export-xdpi="90"
     inkscape:export-ydpi="90" />
  <path
     sodipodi:nodetypes="cc"
     id="path4304"
     d="M 10.36932,154.01887 C 60.46544,240.9803 244.28361,245.7322 303.11152,154.19565"
     style="fill:none;fill-rule:evenodd;stroke:#000000;stroke-width:1px;stroke-linecap:butt;stroke-linejoin:miter;stroke-opacity:1"
     inkscape:export-xdpi="90"
     inkscape:export-ydpi="90" />
  <path
     sodipodi:nodetypes="cc"
     id="path2165"
     d="M 7.81066,118.94823 C 21.97271,239.34556 294.99306,226.82905 305.375,118.375"
     style="fill:none;fill-rule:evenodd;stroke:#000000;stroke-width:1px;stroke-linecap:butt;stroke-linejoin:miter;stroke-opacity:1"
     inkscape:export-xdpi="90"
     inkscape:export-ydpi="90" />
  <path
     sodipodi:nodetypes="ccc"
     id="path2167"
     d="M 16.02617,92.67736 C 8.28812,127.30776 40.77864,185.42454 155.50298,187.07612 C 255.66162,185.70366 309.37979,137.49386 295.6869,90.2025"
     style="fill:none;fill-rule:evenodd;stroke:#000000;stroke-width:1px;stroke-linecap:butt;stroke-linejoin:miter;stroke-opacity:1"
     inkscape:export-xdpi="90"
     inkscape:export-ydpi="90" />
  <path
     sodipodi:nodetypes="ccc"
     id="path2169"
     d="M 39.71425,62.27177 C -12.749246,135.43903 109.00197,170.24133 157.27075,168.86812 C 207.43493,171.12428 324.40632,133.97371 273.41304,62.62532"
     style="fill:none;fill-rule:evenodd;stroke:#000000;stroke-width:1px;stroke-linecap:butt;stroke-linejoin:miter;stroke-opacity:1"
     inkscape:export-xdpi="90"
     inkscape:export-ydpi="90" />
  <path
     style="fill:none;fill-opacity:1;stroke:#000000;stroke-width:1;stroke-miterlimit:4;stroke-dasharray:none;stroke-opacity:1"
     d="M 105.77518,37.65405 C 152.07762,22.04857 212.22284,30.47421 240.0279,56.46137 C 267.83294,82.44849 252.82055,116.20485 206.51809,131.81039 C 160.21565,147.41588 100.07043,138.99023 72.26537,113.00307 C 44.49811,87.05127 59.41604,53.35423 105.59615,37.71455"
     id="path2171"
     inkscape:export-xdpi="90"
     inkscape:export-ydpi="90" />
  <path
     id="path2173"
     d="M 114.19592,47.59404 C 152.9201,34.58029 203.22143,41.60661 226.47567,63.27786 C 249.72989,84.94908 237.17456,113.09924 198.45036,126.11304 C 159.72619,139.12679 109.42485,132.10047 86.17061,110.42922 C 62.94799,88.78744 75.42433,60.68676 114.04619,47.64449"
     style="fill:none;fill-opacity:1;stroke:#000000;stroke-width:1;stroke-miterlimit:4;stroke-dasharray:none;stroke-opacity:1"
     inkscape:export-xdpi="90"
     inkscape:export-ydpi="90" />
  <path
     style="fill:none;fill-opacity:1;stroke:#000000;stroke-width:1;stroke-miterlimit:4;stroke-dasharray:none;stroke-opacity:1"
     d="M 121.367,61.21955 C 153.26935,50.27772 194.70938,56.18538 213.86705,74.40635 C 233.02469,92.62729 222.68117,116.29566 190.7788,127.23753 C 158.87645,138.17936 117.43642,132.2717 98.27875,114.05073 C 79.14713,95.85454 89.42558,72.22778 121.24364,61.26196"
     id="path3146"
     inkscape:export-xdpi="90"
     inkscape:export-ydpi="90" />
  <path
     sodipodi:nodetypes="csc"
     id="path4117"
     d="M 106.5,120.125 C 101.82331,94.64097 138.74924,86.39593 155.75005,86.75467 C 177.72513,87.21838 213.8643,98.96113 205.75,120.125"
     style="fill:none;fill-rule:evenodd;stroke:#000000;stroke-width:1px;stroke-linecap:butt;stroke-linejoin:miter;stroke-opacity:1"
     inkscape:export-xdpi="90"
     inkscape:export-ydpi="90" />
  <path
     style="fill:none;fill-rule:evenodd;stroke:#000000;stroke-width:1;stroke-linecap:butt;stroke-linejoin:miter;stroke-miterlimit:4;stroke-dasharray:none;stroke-opacity:1"
     d="M 109.64401,121.73185 C 110.4173,108.46607 136.55393,100.30181 153.12345,99.64355 C 175.07879,98.77133 200.84167,108.89827 203.35438,121.73185"
     id="path4119"
     sodipodi:nodetypes="csc"
     inkscape:export-xdpi="90"
     inkscape:export-ydpi="90" />
  <path
     sodipodi:nodetypes="csc"
     id="path4121"
     d="M 112,123.125 C 123.39402,112.85215 140.13261,109.1888 155.31294,108.88332 C 170.48317,108.57804 186.89369,111.88799 200.125,123.125"
     style="fill:none;fill-rule:evenodd;stroke:#000000;stroke-width:1px;stroke-linecap:butt;stroke-linejoin:miter;stroke-opacity:1"
     inkscape:export-xdpi="90"
     inkscape:export-ydpi="90" />
  <path
     style="fill:none;fill-rule:evenodd;stroke:#000000;stroke-width:1;stroke-linecap:butt;stroke-linejoin:miter;stroke-miterlimit:4;stroke-dasharray:none;stroke-opacity:1"
     d="M 112.03944,123.58556 C 123.42327,116.52112 140.14687,114.00189 155.31361,113.79183 C 170.47026,113.58189 186.86608,115.85808 200.08556,123.58556"
     id="path4123"
     sodipodi:nodetypes="csc"
     inkscape:export-xdpi="90"
     inkscape:export-ydpi="90" />
  <path
     sodipodi:nodetypes="cc"
     id="path4125"
     d="M 151,132.5 C 148.1391,168 147.00081,203.5 147.88388,239"
     style="fill:none;fill-rule:evenodd;stroke:#000000;stroke-width:1px;stroke-linecap:butt;stroke-linejoin:miter;stroke-opacity:1"
     inkscape:export-xdpi="90"
     inkscape:export-ydpi="90" />
  <path
     sodipodi:nodetypes="cc"
     id="path4127"
     d="M 137.75,131.25 C 126.51162,152.59496 115.91447,189.33113 123,236.25"
     style="fill:none;fill-rule:evenodd;stroke:#000000;stroke-width:1px;stroke-linecap:butt;stroke-linejoin:miter;stroke-opacity:1"
     inkscape:export-xdpi="90"
     inkscape:export-ydpi="90" />
  <path
     sodipodi:nodetypes="cc"
     id="path4129"
     d="M 125.25,128.5 C 97.98135,152.3175 88.30767,208.37482 100,231"
     style="fill:none;fill-rule:evenodd;stroke:#000000;stroke-width:1px;stroke-linecap:butt;stroke-linejoin:miter;stroke-opacity:1"
     inkscape:export-xdpi="90"
     inkscape:export-ydpi="90" />
  <path
     sodipodi:nodetypes="ccc"
     id="path4131"
     d="M 114,125 L 114.5,125.25 C 86.07796,135.81151 65.24676,182.52496 75.25,221.75"
     style="fill:none;fill-rule:evenodd;stroke:#000000;stroke-width:1px;stroke-linecap:butt;stroke-linejoin:miter;stroke-opacity:1"
     inkscape:export-xdpi="90"
     inkscape:export-ydpi="90" />
  <path
     sodipodi:nodetypes="csc"
     id="path4133"
     d="M 109.25,121.5 C 88.3062,119.49616 68.20652,140.32465 60.60346,157.22445 C 53.57735,172.84183 45.91342,192.80643 57,211.5"
     style="fill:none;fill-rule:evenodd;stroke:#000000;stroke-width:1px;stroke-linecap:butt;stroke-linejoin:miter;stroke-opacity:1"
     inkscape:export-xdpi="90"
     inkscape:export-ydpi="90" />
  <path
     sodipodi:nodetypes="ccc"
     id="path4135"
     d="M 101.75,117 C 75.27266,112.18927 63.18273,127.09203 51.625,137.875 C 37.19734,157.04747 29.35364,176.41359 37.5,196.25"
     style="fill:none;fill-rule:evenodd;stroke:#000000;stroke-width:1px;stroke-linecap:butt;stroke-linejoin:miter;stroke-opacity:1"
     inkscape:export-xdpi="90"
     inkscape:export-ydpi="90" />
  <path
     sodipodi:nodetypes="cccc"
     id="path4137"
     d="M 98,114 C 84.9635,107.9883 71.44733,106.93314 57,115.5 C 30.74148,130.89509 23.61033,151.58169 22.70711,156.26256 C 22.06398,166.22733 20.866,172.12622 22.61611,179.79289"
     style="fill:none;fill-rule:evenodd;stroke:#000000;stroke-width:1px;stroke-linecap:butt;stroke-linejoin:miter;stroke-opacity:1"
     inkscape:export-xdpi="90"
     inkscape:export-ydpi="90" />
  <path
     sodipodi:nodetypes="ccccc"
     id="path4139"
     d="M 103.17708,117.60288 C 101.41837,113.72571 96.55942,109.63433 91.50982,105.75884 C 76.51819,100.04772 62.24733,99.24342 46.78532,107.17305 C 32.26766,114.92925 19.43944,124.3749 14.25841,141.46773 C 13.1362,146.82996 12.08615,152.19218 11.42998,157.55441"
     style="fill:none;fill-rule:evenodd;stroke:#000000;stroke-width:1px;stroke-linecap:butt;stroke-linejoin:miter;stroke-opacity:1"
     inkscape:export-xdpi="90"
     inkscape:export-ydpi="90" />
  <path
     sodipodi:nodetypes="cccc"
     id="path4141"
     d="M 104.64307,119.02965 C 100.94902,113.42664 100.24532,106.9318 89.56528,100.45554 C 77.35492,93.33317 62.28536,91.21438 42.54268,97.27356 C 20.75635,103.82639 10.13934,121.14271 7.18734,141.82128"
     style="fill:none;fill-rule:evenodd;stroke:#000000;stroke-width:1px;stroke-linecap:butt;stroke-linejoin:miter;stroke-opacity:1"
     inkscape:export-xdpi="90"
     inkscape:export-ydpi="90" />
  <path
     style="fill:none;fill-rule:evenodd;stroke:#000000;stroke-width:1px;stroke-linecap:butt;stroke-linejoin:miter;stroke-opacity:1"
     d="M 151,132.5 C 148.1391,168 147.00081,203.5 147.88388,239"
     id="path4143"
     sodipodi:nodetypes="cc"
     inkscape:export-xdpi="90"
     inkscape:export-ydpi="90" />
  <path
     style="fill:none;fill-rule:evenodd;stroke:#000000;stroke-width:1px;stroke-linecap:butt;stroke-linejoin:miter;stroke-opacity:1"
     d="M 137.75,131.25 C 126.51162,152.59496 115.91447,189.33113 123,236.25"
     id="path4145"
     sodipodi:nodetypes="cc"
     inkscape:export-xdpi="90"
     inkscape:export-ydpi="90" />
  <path
     style="fill:none;fill-rule:evenodd;stroke:#000000;stroke-width:1px;stroke-linecap:butt;stroke-linejoin:miter;stroke-opacity:1"
     d="M 125.25,128.5 C 97.98135,152.3175 88.30767,208.37482 100,231"
     id="path4147"
     sodipodi:nodetypes="cc"
     inkscape:export-xdpi="90"
     inkscape:export-ydpi="90" />
  <path
     style="fill:none;fill-rule:evenodd;stroke:#000000;stroke-width:1px;stroke-linecap:butt;stroke-linejoin:miter;stroke-opacity:1"
     d="M 114,125 L 114.5,125.25 C 86.07796,135.81151 65.24676,182.52496 75.25,221.75"
     id="path4149"
     sodipodi:nodetypes="ccc"
     inkscape:export-xdpi="90"
     inkscape:export-ydpi="90" />
  <path
     style="fill:none;fill-rule:evenodd;stroke:#000000;stroke-width:1px;stroke-linecap:butt;stroke-linejoin:miter;stroke-opacity:1"
     d="M 60.60346,157.22445 C 53.57735,172.84183 45.91342,192.80643 57,211.5"
     id="path4151"
     sodipodi:nodetypes="cc"
     inkscape:export-xdpi="90"
     inkscape:export-ydpi="90" />
  <path
     style="fill:none;fill-rule:evenodd;stroke:#000000;stroke-width:1px;stroke-linecap:butt;stroke-linejoin:miter;stroke-opacity:1"
     d="M 101.75,117 C 75.27266,112.18927 63.18273,127.09203 51.625,137.875 C 37.19734,157.04747 29.35364,176.41359 37.5,196.25"
     id="path4153"
     sodipodi:nodetypes="ccc"
     inkscape:export-xdpi="90"
     inkscape:export-ydpi="90" />
  <path
     style="fill:none;fill-rule:evenodd;stroke:#000000;stroke-width:1px;stroke-linecap:butt;stroke-linejoin:miter;stroke-opacity:1"
     d="M 98,114 C 84.9635,107.9883 71.44733,106.93314 57,115.5 C 30.74148,130.89509 23.61033,151.58169 22.70711,156.26256 C 22.06398,166.22733 20.866,172.12622 22.61611,179.79289"
     id="path4155"
     sodipodi:nodetypes="cccc"
     inkscape:export-xdpi="90"
     inkscape:export-ydpi="90" />
  <path
     style="fill:none;fill-rule:evenodd;stroke:#000000;stroke-width:1px;stroke-linecap:butt;stroke-linejoin:miter;stroke-opacity:1"
     d="M 103.17708,117.60288 C 101.41837,113.72571 96.55942,109.63433 91.50982,105.75884 C 76.51819,100.04772 62.24733,99.24342 46.78532,107.17305 C 32.26766,114.92925 19.43944,124.3749 14.25841,141.46773 C 13.1362,146.82996 12.08615,152.19218 11.42998,157.55441"
     id="path4157"
     sodipodi:nodetypes="ccccc"
     inkscape:export-xdpi="90"
     inkscape:export-ydpi="90" />
  <path
     style="fill:none;fill-rule:evenodd;stroke:#000000;stroke-width:1px;stroke-linecap:butt;stroke-linejoin:miter;stroke-opacity:1"
     d="M 104.64307,119.02965 C 100.94902,113.42664 100.24532,106.9318 89.56528,100.45554 C 77.35492,93.33317 62.28536,91.21438 42.54268,97.27356 C 20.75635,103.82639 10.13934,121.14271 7.18734,141.82128"
     id="path4159"
     sodipodi:nodetypes="cccc"
     inkscape:export-xdpi="90"
     inkscape:export-ydpi="90" />
  <path
     sodipodi:nodetypes="cccc"
     id="path4161"
     d="M 106.25,120.25 C 104.21441,112.98814 100.15409,103.80136 88.25,93.25 C 64.48008,80.39011 51.85348,84.47131 41,86.75 C 22.75409,90.83743 11.49591,101.91258 7.25,120"
     style="fill:none;fill-rule:evenodd;stroke:#000000;stroke-width:1px;stroke-linecap:butt;stroke-linejoin:miter;stroke-opacity:1"
     inkscape:export-xdpi="90"
     inkscape:export-ydpi="90" />
  <path
     sodipodi:nodetypes="cccc"
     id="path4165"
     d="M 107.75,120.75 C 107.59032,109.83333 97.06982,93.41667 89.75,87.75 C 58.3466,68.70762 42.09493,76.06205 29.75,80 C 24.87391,83.52138 20.79393,86.6447 17.25,89.5"
     style="fill:none;fill-rule:evenodd;stroke:#000000;stroke-width:1px;stroke-linecap:butt;stroke-linejoin:miter;stroke-opacity:1"
     inkscape:export-xdpi="90"
     inkscape:export-ydpi="90" />
  <path
     sodipodi:nodetypes="cccc"
     id="path4167"
     d="M 109.25,121.75 C 109.60037,108.55983 106.47144,94.77781 92.25,82.5 C 70.14707,63.95549 58.69159,66.56861 46.75,66.75 C 40.20215,67.60107 34.9172,68.9586 31.25,71"
     style="fill:none;fill-rule:evenodd;stroke:#000000;stroke-width:1px;stroke-linecap:butt;stroke-linejoin:miter;stroke-opacity:1"
     inkscape:export-xdpi="90"
     inkscape:export-ydpi="90" />
  <path
     sodipodi:nodetypes="cccc"
     id="path4169"
     d="M 111,123 C 112.20437,112.60191 111.5735,101.30971 105.5,90.25 C 98.40712,76.50636 86.34287,66.07698 69.25,59 C 61.67961,57.81715 54.61464,56.00253 44.5,58"
     style="fill:none;fill-rule:evenodd;stroke:#000000;stroke-width:1px;stroke-linecap:butt;stroke-linejoin:miter;stroke-opacity:1"
     inkscape:export-xdpi="90"
     inkscape:export-ydpi="90" />
  <path
     sodipodi:nodetypes="cccc"
     id="path4171"
     d="M 112.25,122.75 C 114.72731,109.23488 121.75205,99.5847 101.75,71.5 C 90.83326,62.27089 83.60305,50.27688 62.75,48.5 L 58.5,48"
     style="fill:none;fill-rule:evenodd;stroke:#000000;stroke-width:1px;stroke-linecap:butt;stroke-linejoin:miter;stroke-opacity:1"
     inkscape:export-xdpi="90"
     inkscape:export-ydpi="90" />
  <path
     sodipodi:nodetypes="ccc"
     id="path4173"
     d="M 115.25,122 C 122.63361,103.58735 120.69915,85.49601 108.75,67.75 C 100.20566,51.72596 86.81529,46.08628 73.75,39.75"
     style="fill:none;fill-rule:evenodd;stroke:#000000;stroke-width:1px;stroke-linecap:butt;stroke-linejoin:miter;stroke-opacity:1"
     inkscape:export-xdpi="90"
     inkscape:export-ydpi="90" />
  <path
     sodipodi:nodetypes="ccc"
     id="path4175"
     d="M 121.40653,119.29742 C 128.72357,105.3328 124.96946,91.63702 122.09219,76.76746 C 112.57613,49.59832 101.21347,40.4825 87.79751,32.92684"
     style="fill:none;fill-rule:evenodd;stroke:#000000;stroke-width:1px;stroke-linecap:butt;stroke-linejoin:miter;stroke-opacity:1"
     inkscape:export-xdpi="90"
     inkscape:export-ydpi="90" />
  <path
     sodipodi:nodetypes="csc"
     id="path4177"
     d="M 101.93965,28.6842 C 118.15962,40.96966 123.986,54.27174 128.53431,68.80775 C 133.36815,84.25627 134.40647,109.14742 127.02049,117.34399"
     style="fill:none;fill-rule:evenodd;stroke:#000000;stroke-width:1px;stroke-linecap:butt;stroke-linejoin:miter;stroke-opacity:1"
     inkscape:export-xdpi="90"
     inkscape:export-ydpi="90" />
  <path
     sodipodi:nodetypes="cc"
     id="path4179"
     d="M 135.88078,115.38689 C 144.12624,85.7965 137.69467,54.73446 119.61732,24.79511"
     style="fill:none;fill-rule:evenodd;stroke:#000000;stroke-width:1px;stroke-linecap:butt;stroke-linejoin:miter;stroke-opacity:1"
     inkscape:export-xdpi="90"
     inkscape:export-ydpi="90" />
  <path
     sodipodi:nodetypes="cc"
     id="path4181"
     d="M 135.79867,22.44524 C 148.06785,51.69216 147.94337,83.25919 146.09461,113.76557"
     style="fill:none;fill-rule:evenodd;stroke:#000000;stroke-width:1px;stroke-linecap:butt;stroke-linejoin:miter;stroke-opacity:1"
     inkscape:export-xdpi="90"
     inkscape:export-ydpi="90" />
  <path
     sodipodi:nodetypes="cc"
     id="path4183"
     d="M 156,114 C 157.59715,82.8139 156.07921,52.25082 155.5,21.5"
     style="fill:none;fill-rule:evenodd;stroke:#000000;stroke-width:1px;stroke-linecap:butt;stroke-linejoin:miter;stroke-opacity:1"
     inkscape:export-xdpi="90"
     inkscape:export-ydpi="90" />
  <path
     style="fill:none;fill-rule:evenodd;stroke:#000000;stroke-width:1px;stroke-linecap:butt;stroke-linejoin:miter;stroke-opacity:1"
     d="M 160.89663,132.5 C 163.75753,168 164.89582,203.5 164.01275,239"
     id="path4185"
     sodipodi:nodetypes="cc"
     inkscape:export-xdpi="90"
     inkscape:export-ydpi="90" />
  <path
     style="fill:none;fill-rule:evenodd;stroke:#000000;stroke-width:1px;stroke-linecap:butt;stroke-linejoin:miter;stroke-opacity:1"
     d="M 174.14663,131.25 C 185.38501,152.59496 195.98216,189.33113 188.89663,236.25"
     id="path4187"
     sodipodi:nodetypes="cc"
     inkscape:export-xdpi="90"
     inkscape:export-ydpi="90" />
  <path
     style="fill:none;fill-rule:evenodd;stroke:#000000;stroke-width:1px;stroke-linecap:butt;stroke-linejoin:miter;stroke-opacity:1"
     d="M 186.64663,128.5 C 213.91528,152.3175 223.58896,208.37482 211.89663,231"
     id="path4189"
     sodipodi:nodetypes="cc"
     inkscape:export-xdpi="90"
     inkscape:export-ydpi="90" />
  <path
     style="fill:none;fill-rule:evenodd;stroke:#000000;stroke-width:1px;stroke-linecap:butt;stroke-linejoin:miter;stroke-opacity:1"
     d="M 197.89663,125 L 197.39663,125.25 C 225.81867,135.81151 246.64987,182.52496 236.64663,221.75"
     id="path4191"
     sodipodi:nodetypes="ccc"
     inkscape:export-xdpi="90"
     inkscape:export-ydpi="90" />
  <path
     style="fill:none;fill-rule:evenodd;stroke:#000000;stroke-width:1px;stroke-linecap:butt;stroke-linejoin:miter;stroke-opacity:1"
     d="M 202.64663,121.5 C 223.59043,119.49616 243.69011,140.32465 251.29317,157.22445 C 258.31928,172.84183 265.98321,192.80643 254.89663,211.5"
     id="path4193"
     sodipodi:nodetypes="csc"
     inkscape:export-xdpi="90"
     inkscape:export-ydpi="90" />
  <path
     style="fill:none;fill-rule:evenodd;stroke:#000000;stroke-width:1px;stroke-linecap:butt;stroke-linejoin:miter;stroke-opacity:1"
     d="M 210.14663,117 C 236.62397,112.18927 248.7139,127.09203 260.27163,137.875 C 274.69929,157.04747 282.54299,176.41359 274.39663,196.25"
     id="path4195"
     sodipodi:nodetypes="ccc"
     inkscape:export-xdpi="90"
     inkscape:export-ydpi="90" />
  <path
     style="fill:none;fill-rule:evenodd;stroke:#000000;stroke-width:1px;stroke-linecap:butt;stroke-linejoin:miter;stroke-opacity:1"
     d="M 213.89663,114 C 226.93313,107.9883 240.4493,106.93314 254.89663,115.5 C 281.15515,130.89509 288.2863,151.58169 289.18952,156.26256 C 289.83265,166.22733 291.03063,172.12622 289.28052,179.79289"
     id="path4197"
     sodipodi:nodetypes="cccc"
     inkscape:export-xdpi="90"
     inkscape:export-ydpi="90" />
  <path
     style="fill:none;fill-rule:evenodd;stroke:#000000;stroke-width:1px;stroke-linecap:butt;stroke-linejoin:miter;stroke-opacity:1"
     d="M 208.71955,117.60288 C 210.47826,113.72571 215.33721,109.63433 220.38681,105.75884 C 235.37844,100.04772 249.6493,99.24342 265.11131,107.17305 C 279.62897,114.92925 292.45719,124.3749 297.63822,141.46773 C 298.76043,146.82996 299.81048,152.19218 300.46665,157.55441"
     id="path4199"
     sodipodi:nodetypes="ccccc"
     inkscape:export-xdpi="90"
     inkscape:export-ydpi="90" />
  <path
     style="fill:none;fill-rule:evenodd;stroke:#000000;stroke-width:1px;stroke-linecap:butt;stroke-linejoin:miter;stroke-opacity:1"
     d="M 207.25356,119.02965 C 210.94761,113.42664 211.65131,106.9318 222.33135,100.45554 C 234.54171,93.33317 249.61127,91.21438 269.35395,97.27356 C 291.14028,103.82639 301.75729,121.14271 304.70929,141.82128"
     id="path4201"
     sodipodi:nodetypes="cccc"
     inkscape:export-xdpi="90"
     inkscape:export-ydpi="90" />
  <path
     sodipodi:nodetypes="cc"
     id="path4203"
     d="M 160.89663,132.5 C 163.75753,168 164.89582,203.5 164.01275,239"
     style="fill:none;fill-rule:evenodd;stroke:#000000;stroke-width:1px;stroke-linecap:butt;stroke-linejoin:miter;stroke-opacity:1"
     inkscape:export-xdpi="90"
     inkscape:export-ydpi="90" />
  <path
     sodipodi:nodetypes="cc"
     id="path4205"
     d="M 174.14663,131.25 C 185.38501,152.59496 195.98216,189.33113 188.89663,236.25"
     style="fill:none;fill-rule:evenodd;stroke:#000000;stroke-width:1px;stroke-linecap:butt;stroke-linejoin:miter;stroke-opacity:1"
     inkscape:export-xdpi="90"
     inkscape:export-ydpi="90" />
  <path
     sodipodi:nodetypes="cc"
     id="path4207"
     d="M 186.64663,128.5 C 213.91528,152.3175 223.58896,208.37482 211.89663,231"
     style="fill:none;fill-rule:evenodd;stroke:#000000;stroke-width:1px;stroke-linecap:butt;stroke-linejoin:miter;stroke-opacity:1"
     inkscape:export-xdpi="90"
     inkscape:export-ydpi="90" />
  <path
     sodipodi:nodetypes="ccc"
     id="path4209"
     d="M 197.89663,125 L 197.39663,125.25 C 225.81867,135.81151 246.64987,182.52496 236.64663,221.75"
     style="fill:none;fill-rule:evenodd;stroke:#000000;stroke-width:1px;stroke-linecap:butt;stroke-linejoin:miter;stroke-opacity:1"
     inkscape:export-xdpi="90"
     inkscape:export-ydpi="90" />
  <path
     sodipodi:nodetypes="cc"
     id="path4211"
     d="M 251.29317,157.22445 C 258.31928,172.84183 265.98321,192.80643 254.89663,211.5"
     style="fill:none;fill-rule:evenodd;stroke:#000000;stroke-width:1px;stroke-linecap:butt;stroke-linejoin:miter;stroke-opacity:1"
     inkscape:export-xdpi="90"
     inkscape:export-ydpi="90" />
  <path
     sodipodi:nodetypes="ccc"
     id="path4213"
     d="M 210.14663,117 C 236.62397,112.18927 248.7139,127.09203 260.27163,137.875 C 274.69929,157.04747 282.54299,176.41359 274.39663,196.25"
     style="fill:none;fill-rule:evenodd;stroke:#000000;stroke-width:1px;stroke-linecap:butt;stroke-linejoin:miter;stroke-opacity:1"
     inkscape:export-xdpi="90"
     inkscape:export-ydpi="90" />
  <path
     sodipodi:nodetypes="cccc"
     id="path4215"
     d="M 213.89663,114 C 226.93313,107.9883 240.4493,106.93314 254.89663,115.5 C 281.15515,130.89509 288.2863,151.58169 289.18952,156.26256 C 289.83265,166.22733 291.03063,172.12622 289.28052,179.79289"
     style="fill:none;fill-rule:evenodd;stroke:#000000;stroke-width:1px;stroke-linecap:butt;stroke-linejoin:miter;stroke-opacity:1"
     inkscape:export-xdpi="90"
     inkscape:export-ydpi="90" />
  <path
     sodipodi:nodetypes="ccccc"
     id="path4217"
     d="M 208.71955,117.60288 C 210.47826,113.72571 215.33721,109.63433 220.38681,105.75884 C 235.37844,100.04772 249.6493,99.24342 265.11131,107.17305 C 279.62897,114.92925 292.45719,124.3749 297.63822,141.46773 C 298.76043,146.82996 299.81048,152.19218 300.46665,157.55441"
     style="fill:none;fill-rule:evenodd;stroke:#000000;stroke-width:1px;stroke-linecap:butt;stroke-linejoin:miter;stroke-opacity:1"
     inkscape:export-xdpi="90"
     inkscape:export-ydpi="90" />
  <path
     sodipodi:nodetypes="cccc"
     id="path4219"
     d="M 207.25356,119.02965 C 210.94761,113.42664 211.65131,106.9318 222.33135,100.45554 C 234.54171,93.33317 249.61127,91.21438 269.35395,97.27356 C 291.14028,103.82639 301.75729,121.14271 304.70929,141.82128"
     style="fill:none;fill-rule:evenodd;stroke:#000000;stroke-width:1px;stroke-linecap:butt;stroke-linejoin:miter;stroke-opacity:1"
     inkscape:export-xdpi="90"
     inkscape:export-ydpi="90" />
  <path
     style="fill:none;fill-rule:evenodd;stroke:#000000;stroke-width:1px;stroke-linecap:butt;stroke-linejoin:miter;stroke-opacity:1"
     d="M 205.64663,120.25 C 207.68222,112.98814 211.74254,103.80136 223.64663,93.25 C 247.41655,80.39011 260.04315,84.47131 270.89663,86.75 C 289.14254,90.83743 300.40072,101.91258 304.64663,120"
     id="path4221"
     sodipodi:nodetypes="cccc"
     inkscape:export-xdpi="90"
     inkscape:export-ydpi="90" />
  <path
     style="fill:none;fill-rule:evenodd;stroke:#000000;stroke-width:1px;stroke-linecap:butt;stroke-linejoin:miter;stroke-opacity:1"
     d="M 204.14663,120.75 C 204.30631,109.83333 214.82681,93.41667 222.14663,87.75 C 253.55003,68.70762 269.8017,76.06205 282.14663,80 C 287.02272,83.52138 291.1027,86.6447 294.64663,89.5"
     id="path4223"
     sodipodi:nodetypes="cccc"
     inkscape:export-xdpi="90"
     inkscape:export-ydpi="90" />
  <path
     style="fill:none;fill-rule:evenodd;stroke:#000000;stroke-width:1px;stroke-linecap:butt;stroke-linejoin:miter;stroke-opacity:1"
     d="M 202.64663,121.75 C 202.29626,108.55983 205.42519,94.77781 219.64663,82.5 C 241.74956,63.95549 253.20504,66.56861 265.14663,66.75 C 271.69448,67.60107 276.97943,68.9586 280.64663,71"
     id="path4225"
     sodipodi:nodetypes="cccc"
     inkscape:export-xdpi="90"
     inkscape:export-ydpi="90" />
  <path
     style="fill:none;fill-rule:evenodd;stroke:#000000;stroke-width:1px;stroke-linecap:butt;stroke-linejoin:miter;stroke-opacity:1"
     d="M 200.89663,123 C 199.69226,112.60191 200.32313,101.30971 206.39663,90.25 C 213.48951,76.50636 225.55376,66.07698 242.64663,59 C 250.21702,57.81715 257.28199,56.00253 267.39663,58"
     id="path4227"
     sodipodi:nodetypes="cccc"
     inkscape:export-xdpi="90"
     inkscape:export-ydpi="90" />
  <path
     style="fill:none;fill-rule:evenodd;stroke:#000000;stroke-width:1px;stroke-linecap:butt;stroke-linejoin:miter;stroke-opacity:1"
     d="M 199.64663,122.75 C 197.16932,109.23488 190.14458,99.5847 210.14663,71.5 C 221.06337,62.27089 228.29358,50.27688 249.14663,48.5 L 253.39663,48"
     id="path4229"
     sodipodi:nodetypes="cccc"
     inkscape:export-xdpi="90"
     inkscape:export-ydpi="90" />
  <path
     style="fill:none;fill-rule:evenodd;stroke:#000000;stroke-width:1px;stroke-linecap:butt;stroke-linejoin:miter;stroke-opacity:1"
     d="M 196.64663,122 C 189.26302,103.58735 191.19748,85.49601 203.14663,67.75 C 211.69097,51.72596 225.08134,46.08628 238.14663,39.75"
     id="path4231"
     sodipodi:nodetypes="ccc"
     inkscape:export-xdpi="90"
     inkscape:export-ydpi="90" />
  <path
     style="fill:none;fill-rule:evenodd;stroke:#000000;stroke-width:1px;stroke-linecap:butt;stroke-linejoin:miter;stroke-opacity:1"
     d="M 190.4901,119.29742 C 183.17306,105.3328 186.92717,91.63702 189.80444,76.76746 C 199.3205,49.59832 210.68316,40.4825 224.09912,32.92684"
     id="path4233"
     sodipodi:nodetypes="ccc"
     inkscape:export-xdpi="90"
     inkscape:export-ydpi="90" />
  <path
     style="fill:none;fill-rule:evenodd;stroke:#000000;stroke-width:1px;stroke-linecap:butt;stroke-linejoin:miter;stroke-opacity:1"
     d="M 209.95698,28.6842 C 193.73701,40.96966 187.91063,54.27174 183.36232,68.80775 C 178.52848,84.25627 177.49016,109.14742 184.87614,117.34399"
     id="path4235"
     sodipodi:nodetypes="csc"
     inkscape:export-xdpi="90"
     inkscape:export-ydpi="90" />
  <path
     style="fill:none;fill-rule:evenodd;stroke:#000000;stroke-width:1px;stroke-linecap:butt;stroke-linejoin:miter;stroke-opacity:1"
     d="M 176.01585,115.38689 C 167.77039,85.7965 174.20196,54.73446 192.27931,24.79511"
     id="path4237"
     sodipodi:nodetypes="cc"
     inkscape:export-xdpi="90"
     inkscape:export-ydpi="90" />
  <path
     style="fill:none;fill-rule:evenodd;stroke:#000000;stroke-width:1px;stroke-linecap:butt;stroke-linejoin:miter;stroke-opacity:1"
     d="M 176.09796,22.44524 C 163.82878,51.69216 163.95326,83.25919 165.80202,113.76557"
     id="path4239"
     sodipodi:nodetypes="cc"
     inkscape:export-xdpi="90"
     inkscape:export-ydpi="90" />
  <ellipse
     transform="matrix(1.0069033,0,0,0.83539788,-0.74475335,20.474145)"
     ry="90.357262"
     rx="110.28432"
     cy="126.53359"
     cx="159.09903"
     id="path3542"
     style="opacity:1;fill:#ff0000;fill-opacity:0;fill-rule:evenodd;stroke:#ed0000;stroke-width:13;stroke-linecap:butt;stroke-linejoin:miter;stroke-miterlimit:4;stroke-dasharray:none;stroke-opacity:1;filter:url(#filter4438)"
     inkscape:export-xdpi="90"
     inkscape:export-ydpi="90" />
  <path
     transform="matrix(1.1940326,0,0,0.50875989,-32.511512,4.5695615)"
     inkscape:connector-curvature="0"
     id="path4442"
     d="m 156.2706,11.80552 0.70711,240.41631"
     style="fill:#0000ff;fill-rule:evenodd;stroke:#00ff00;stroke-width:13;stroke-linecap:butt;stroke-linejoin:miter;stroke-miterlimit:4;stroke-dasharray:none;stroke-opacity:1;filter:url(#filter4672)"
     inkscape:export-xdpi="90"
     inkscape:export-ydpi="90" />
  <path
     inkscape:connector-curvature="0"
     id="path4730"
     d="m 156.62415,228.53374 c 0,5.89256 0,11.78512 0,17.67767"
     style="fill:none;fill-rule:evenodd;stroke:#0000ff;stroke-width:1px;stroke-linecap:butt;stroke-linejoin:miter;stroke-opacity:1;marker-end:url(#Arrow2Send)"
     inkscape:export-xdpi="90"
     inkscape:export-ydpi="90" />
  <path
     sodipodi:nodetypes="cc"
     inkscape:connector-curvature="0"
     id="path4730-0"
     d="m 177.12545,226.75013 2.47487,17.32412"
     style="fill:none;fill-rule:evenodd;stroke:#0000ff;stroke-width:1px;stroke-linecap:butt;stroke-linejoin:miter;stroke-opacity:1;marker-end:url(#Arrow2Send-1)"
     inkscape:export-xdpi="90"
     inkscape:export-ydpi="90" />
  <path
     sodipodi:nodetypes="cc"
     inkscape:connector-curvature="0"
     id="path4730-0-6"
     d="m 202.50066,223.78741 4.24264,16.26346"
     style="fill:none;fill-rule:evenodd;stroke:#0000ff;stroke-width:1px;stroke-linecap:butt;stroke-linejoin:miter;stroke-opacity:1;marker-end:url(#Arrow2Send-1-9)"
     inkscape:export-xdpi="90"
     inkscape:export-ydpi="90" />
  <path
     sodipodi:nodetypes="cc"
     inkscape:connector-curvature="0"
     id="path4730-0-2"
     d="m 134.61842,226.9694 -1.41422,18.38478"
     style="fill:none;fill-rule:evenodd;stroke:#0000ff;stroke-width:1px;stroke-linecap:butt;stroke-linejoin:miter;stroke-opacity:1;marker-end:url(#Arrow2Send-1-0)"
     inkscape:export-xdpi="90"
     inkscape:export-ydpi="90" />
  <path
     sodipodi:nodetypes="cc"
     inkscape:connector-curvature="0"
     id="path4730-0-6-8"
     d="m 109.8077,222.59309 -4.59619,18.38478"
     style="fill:#000000;fill-rule:evenodd;stroke:#0000ff;stroke-width:1px;stroke-linecap:butt;stroke-linejoin:miter;stroke-opacity:1;marker-end:url(#Arrow2Send-1-9-6);fill-opacity:0.81176472"
     inkscape:export-xdpi="90"
     inkscape:export-ydpi="90" />
  <path
     sodipodi:nodetypes="cc"
     inkscape:connector-curvature="0"
     id="path4730-2"
     d="m 156.61935,213.3151 c 0,7.05167 0,9.78611 0,10.25305"
     style="fill:none;fill-rule:evenodd;stroke:#0000ff;stroke-width:1px;stroke-linecap:butt;stroke-linejoin:miter;stroke-opacity:1;marker-end:url(#Arrow2Send-7)"
     inkscape:export-xdpi="90"
     inkscape:export-ydpi="90" />
  <path
     sodipodi:nodetypes="cc"
     inkscape:connector-curvature="0"
     id="path4730-2-3"
     d="m 178.1861,211.37056 1.76777,10.6066"
     style="fill:none;fill-rule:evenodd;stroke:#0000ff;stroke-width:1px;stroke-linecap:butt;stroke-linejoin:miter;stroke-opacity:1;marker-end:url(#Arrow2Send-7-0)"
     inkscape:export-xdpi="90"
     inkscape:export-ydpi="90" />
  <path
     sodipodi:nodetypes="cc"
     inkscape:connector-curvature="0"
     id="path4730-2-3-9"
     d="m 134.99535,213.01224 -1.41421,10.6066"
     style="fill:none;fill-rule:evenodd;stroke:#0000ff;stroke-width:1px;stroke-linecap:butt;stroke-linejoin:miter;stroke-opacity:1;marker-end:url(#Arrow2Send-7-0-7)"
     inkscape:export-xdpi="90"
     inkscape:export-ydpi="90" />
  <path
     sodipodi:nodetypes="cc"
     inkscape:connector-curvature="0"
     id="path4730-2-3-9-8"
     d="m 156.53741,196.73674 -0.35355,5.3033"
     style="fill:none;fill-rule:evenodd;stroke:#0000ff;stroke-width:1px;stroke-linecap:butt;stroke-linejoin:miter;stroke-opacity:1;marker-end:url(#Arrow2Send-7-0-7-2)"
     inkscape:export-xdpi="90"
     inkscape:export-ydpi="90" />
  <g
     id="g4358"
     transform="matrix(1.9098601,0,0,1.9749956,-139.45964,95.35179)"
     inkscape:export-xdpi="90"
     inkscape:export-ydpi="90">
    <g
       word-spacing="normal"
       letter-spacing="normal"
       font-size-adjust="none"
       font-stretch="normal"
       font-weight="normal"
       font-variant="normal"
       font-style="normal"
       stroke-miterlimit="10.433"
       xml:space="preserve"
       transform="matrix(0.37142857,0,0,-0.37142857,-65,232.5)"
       id="content"
       style="font-style:normal;font-variant:normal;font-weight:normal;font-stretch:normal;letter-spacing:normal;word-spacing:normal;text-anchor:start;fill:none;fill-opacity:1;fill-rule:evenodd;stroke:#000000;stroke-linecap:butt;stroke-linejoin:miter;stroke-miterlimit:10.43299961;stroke-dasharray:none;stroke-dashoffset:0;stroke-opacity:1"><path
         id="path4361"
         d="m 483.3,423.83 0.49,0.1 0.49,0.1 0.47,0.12 0.46,0.13 0.45,0.14 0.43,0.15 0.42,0.17 0.4,0.17 0.39,0.18 0.38,0.19 0.36,0.21 0.35,0.21 0.33,0.22 0.32,0.23 0.3,0.24 0.28,0.25 0.27,0.25 0.26,0.27 0.23,0.27 0.23,0.28 0.2,0.29 0.19,0.29 0.17,0.31 0.15,0.31 0.14,0.31 0.12,0.32 0.1,0.33 0.08,0.34 0.07,0.34 0.05,0.35 0.02,0.35 0.01,0.36 c 0,4.58 -4.33,8.56 -12.35,8.56 l -0.65,-2.34 c 5.04,0 5.93,-3.94 5.93,-6.22 0,-3.84 -2.39,-6.93 -7.22,-6.93 l -7.77,0 0,-1.79 9.66,0 c 1,0 3.34,0 5.03,-2.14 1.65,-2.1 1.65,-4.89 1.65,-5.43 0,-0.6 0,-6.98 -7.17,-6.98 l 0,0 -9.17,0 0,14.55 0,1.79 0,13.15 9.06,0 0.65,2.34 -21.62,0 0,-2.34 5.38,0 0,-29.49 -5.38,0 0,-2.34 23.11,0 c 8.27,0 12.46,4.38 12.46,9.27 0,4.78 -4.28,8.11 -10.21,8.56 z"
         inkscape:connector-curvature="0"
         style="fill:#000000;stroke-width:0" /></g>  </g>
  <g
     id="g4589"
     transform="matrix(1.3377963,0,0,1.5522114,48.892931,-105.31307)"
     inkscape:export-xdpi="90"
     inkscape:export-ydpi="90">
    <g
       id="g4591"
       transform="matrix(0.37142857,0,0,-0.37142857,-65,232.5)"
       xml:space="preserve"
       stroke-miterlimit="10.433"
       font-style="normal"
       font-variant="normal"
       font-weight="normal"
       font-stretch="normal"
       font-size-adjust="none"
       letter-spacing="normal"
       word-spacing="normal"
       style="font-style:normal;font-variant:normal;font-weight:normal;font-stretch:normal;letter-spacing:normal;word-spacing:normal;text-anchor:start;fill:none;fill-opacity:1;fill-rule:evenodd;stroke:#000000;stroke-linecap:butt;stroke-linejoin:miter;stroke-miterlimit:10.43299961;stroke-dasharray:none;stroke-dashoffset:0;stroke-opacity:1"><path
         d="m 475.88,412.73 0,1.09 0,18.38 c 6.87,-0.79 8.26,-5.38 8.26,-9.16 0,-2.99 -0.74,-8.32 -8.26,-9.22 l 0,-1.09 c 7.72,0.59 13.24,5.23 13.24,10.25 0,5.19 -5.67,9.72 -13.24,10.32 l 0,2.79 c 0,1.69 0,2.39 4.73,2.39 l 1.64,0 0,1.54 -16.89,0 0,-1.54 1.65,0 c 4.73,0 4.73,-0.65 4.73,-2.39 l 0,-2.79 c -7.62,-0.75 -12.95,-5.33 -12.95,-10.26 0,-5.13 5.53,-9.57 12.95,-10.31 l 0,1.14 c -7.07,0.95 -7.97,6.03 -7.97,9.11 0,2.6 0.5,8.18 7.97,9.17 l 0,-18.28 0,-1.14 0,-2.8 c 0,-1.69 0,-2.39 -4.73,-2.39 l -1.65,0 0,-1.54 16.89,0 0,1.54 -1.64,0 c -4.73,0 -4.73,0.65 -4.73,2.39 z"
         id="path4593"
         inkscape:connector-curvature="0"
         style="fill:#000000;stroke-width:0" /><path
         d="m 500.68,402.7 -0.03,-0.12 -0.04,-0.11 -0.05,-0.12 -0.04,-0.13 -0.06,-0.12 -0.06,-0.13 -0.06,-0.12 -0.07,-0.13 -0.07,-0.13 -0.07,-0.13 -0.08,-0.13 -0.09,-0.12 -0.09,-0.13 -0.09,-0.12 -0.1,-0.12 -0.1,-0.12 -0.11,-0.12 -0.11,-0.11 -0.11,-0.1 -0.12,-0.1 -0.12,-0.1 -0.13,-0.09 -0.13,-0.08 -0.13,-0.08 -0.14,-0.07 -0.14,-0.06 -0.15,-0.05 -0.15,-0.05 -0.15,-0.03 -0.16,-0.03 -0.16,-0.02 -0.16,0 c -0.11,0 -1.16,0 -1.89,0.49 1.43,0.45 1.53,1.7 1.53,1.92 0,0.76 -0.59,1.28 -1.39,1.28 -0.98,0 -1.99,-0.83 -1.99,-2.12 0,-1.75 1.95,-2.55 3.67,-2.55 1.6,0 3.03,1.01 3.9,2.48 0.84,-1.85 2.76,-2.48 4.15,-2.48 4.01,0 6.14,4.36 6.14,5.33 0,0.46 -0.46,0.46 -0.56,0.46 -0.49,0 -0.52,-0.17 -0.67,-0.59 -0.73,-2.41 -2.82,-4.22 -4.77,-4.22 -1.4,0 -2.13,0.94 -2.13,2.26 0,0.91 0.84,4.08 1.81,7.95 0.7,2.69 2.27,3.56 3.42,3.56 0.07,0 1.16,0 1.89,-0.49 -1.12,-0.31 -1.54,-1.29 -1.54,-1.91 0,-0.77 0.59,-1.3 1.4,-1.3 0.8,0 1.95,0.67 1.95,2.13 0,1.96 -2.23,2.55 -3.63,2.55 -1.74,0 -3.14,-1.15 -3.9,-2.48 -0.63,1.43 -2.23,2.48 -4.19,2.48 -3.9,0 -6.13,-4.29 -6.13,-5.34 0,-0.45 0.48,-0.45 0.59,-0.45 0.45,0 0.49,0.14 0.66,0.59 0.87,2.72 3.07,4.22 4.78,4.22 1.15,0 2.09,-0.63 2.09,-2.3 0,-0.7 -0.42,-2.44 -0.73,-3.63 z"
         id="path4595"
         inkscape:connector-curvature="0"
         style="fill:#000000;stroke-width:0" /></g>  </g>
  <g
     id="g4831"
     transform="matrix(1.3790171,0,0,1.514206,127.27944,96.362297)"
     inkscape:export-xdpi="90"
     inkscape:export-ydpi="90">
    <g
       word-spacing="normal"
       letter-spacing="normal"
       font-size-adjust="none"
       font-stretch="normal"
       font-weight="normal"
       font-variant="normal"
       font-style="normal"
       stroke-miterlimit="10.433"
       xml:space="preserve"
       transform="matrix(0.37142857,0,0,-0.37142857,-65,232.5)"
       id="g4833"
       style="font-style:normal;font-variant:normal;font-weight:normal;font-stretch:normal;letter-spacing:normal;word-spacing:normal;text-anchor:start;fill:none;fill-opacity:1;fill-rule:evenodd;stroke:#000000;stroke-linecap:butt;stroke-linejoin:miter;stroke-miterlimit:10.43299961;stroke-dasharray:none;stroke-dashoffset:0;stroke-opacity:1"><path
         id="path4835"
         d="m 475.88,412.73 0,1.09 0,18.38 c 6.87,-0.79 8.26,-5.38 8.26,-9.16 0,-2.99 -0.74,-8.32 -8.26,-9.22 l 0,-1.09 c 7.72,0.59 13.24,5.23 13.24,10.25 0,5.19 -5.67,9.72 -13.24,10.32 l 0,2.79 c 0,1.69 0,2.39 4.73,2.39 l 1.64,0 0,1.54 -16.89,0 0,-1.54 1.65,0 c 4.73,0 4.73,-0.65 4.73,-2.39 l 0,-2.79 c -7.62,-0.75 -12.95,-5.33 -12.95,-10.26 0,-5.13 5.53,-9.57 12.95,-10.31 l 0,1.14 c -7.07,0.95 -7.97,6.03 -7.97,9.11 0,2.6 0.5,8.18 7.97,9.17 l 0,-18.28 0,-1.14 0,-2.8 c 0,-1.69 0,-2.39 -4.73,-2.39 l -1.65,0 0,-1.54 16.89,0 0,1.54 -1.64,0 c -4.73,0 -4.73,0.65 -4.73,2.39 z"
         inkscape:connector-curvature="0"
         style="fill:#000000;stroke-width:0" /><path
         id="path4837"
         d="m 511.39,412.14 0,0.03 0.01,0.02 0.01,0.02 0,0.02 0.01,0.02 0,0.02 0.01,0.04 0.01,0.04 0.01,0.03 0.01,0.03 0.01,0.03 0.01,0.03 0,0.03 0.01,0.02 0,0.03 0.01,0.02 0,0.02 0.01,0.02 0,0.02 0,0.02 0.01,0.02 0,0.02 0,0.02 0,0.03 0,0.03 0.01,0.04 0,0.03 0,0.02 0,0.02 0,0.01 0,0.02 c 0,0.7 -0.56,1.12 -1.15,1.12 -0.39,0 -1.05,-0.17 -1.43,-0.84 -0.11,-0.21 -0.39,-1.32 -0.56,-2.02 l -0.73,-2.9 c -0.21,-0.83 -1.29,-5.23 -1.4,-5.61 -0.03,0 -1.57,-3.03 -4.29,-3.03 -2.37,0 -2.37,2.26 -2.37,2.89 0,1.89 0.8,4.08 1.85,6.77 0.42,1.11 0.59,1.53 0.59,2.12 0,1.68 -1.43,2.97 -3.31,2.97 -3.52,0 -5.09,-4.74 -5.09,-5.34 0,-0.45 0.49,-0.45 0.59,-0.45 0.49,0 0.52,0.17 0.63,0.56 0.87,2.89 2.37,4.25 3.76,4.25 0.6,0 0.88,-0.38 0.88,-1.22 0,-0.8 -0.32,-1.57 -0.49,-2.02 -1.67,-4.26 -2.03,-5.55 -2.03,-7.08 0,-0.59 0,-2.23 1.37,-3.35 1.08,-0.91 2.54,-1.08 3.48,-1.08 1.4,0 2.65,0.53 3.8,1.57 -0.45,-1.92 -0.83,-3.38 -2.3,-5.13 -0.94,-1.07 -2.33,-2.23 -4.18,-2.23 -0.25,0 -1.88,0 -2.62,1.16 1.88,0.2 1.88,1.88 1.88,1.91 0,1.12 -1,1.33 -1.36,1.33 -0.87,0 -2.01,-0.7 -2.01,-2.3 0,-1.78 1.67,-3.07 4.14,-3.07 3.52,0 7.81,2.72 8.89,7.07 z"
         inkscape:connector-curvature="0"
         style="fill:#000000;stroke-width:0" /></g>  </g>
</svg>
