<?xml version="1.0" encoding="UTF-8" standalone="no"?>
<!-- Created with Inkscape (http://www.inkscape.org/) -->

<svg
   xmlns:dc="http://purl.org/dc/elements/1.1/"
   xmlns:cc="http://creativecommons.org/ns#"
   xmlns:rdf="http://www.w3.org/1999/02/22-rdf-syntax-ns#"
   xmlns:svg="http://www.w3.org/2000/svg"
   xmlns="http://www.w3.org/2000/svg"
   xmlns:sodipodi="http://sodipodi.sourceforge.net/DTD/sodipodi-0.dtd"
   xmlns:inkscape="http://www.inkscape.org/namespaces/inkscape"
   width="210mm"
   height="297mm"
   viewBox="0 0 210 297"
   version="1.1"
   id="svg8"
   inkscape:version="0.92.3 (2405546, 2018-03-11)"
   sodipodi:docname="cavityQED.svg">
  <sodipodi:namedview
     id="base"
     pagecolor="#ffffff"
     bordercolor="#666666"
     borderopacity="1.0"
     inkscape:pageopacity="0.0"
     inkscape:pageshadow="2"
     inkscape:zoom="1.4"
     inkscape:cx="388.3346"
     inkscape:cy="787.61877"
     inkscape:document-units="mm"
     inkscape:current-layer="g2458"
     showgrid="false"
     inkscape:window-width="1853"
     inkscape:window-height="1025"
     inkscape:window-x="67"
     inkscape:window-y="27"
     inkscape:window-maximized="1" />
  <defs
     id="defs2">
    <marker
       inkscape:stockid="Arrow1Mstart"
       orient="auto"
       refY="0.0"
       refX="0.0"
       id="Arrow1Mstart"
       style="overflow:visible"
       inkscape:isstock="true">
      <path
         id="path926"
         d="M 0.0,0.0 L 5.0,-5.0 L -12.5,0.0 L 5.0,5.0 L 0.0,0.0 z "
         style="fill-rule:evenodd;stroke:#000000;stroke-width:1pt;stroke-opacity:1;fill:#000000;fill-opacity:1"
         transform="scale(0.4) translate(10,0)" />
    </marker>
    <marker
       inkscape:stockid="Arrow2Mend"
       orient="auto"
       refY="0.0"
       refX="0.0"
       id="Arrow2Mend"
       style="overflow:visible;"
       inkscape:isstock="true">
      <path
         id="path947"
         style="fill-rule:evenodd;stroke-width:0.625;stroke-linejoin:round;stroke:#000000;stroke-opacity:1;fill:#000000;fill-opacity:1"
         d="M 8.7185878,4.0337352 L -2.2072895,0.016013256 L 8.7185884,-4.0017078 C 6.9730900,-1.6296469 6.9831476,1.6157441 8.7185878,4.0337352 z "
         transform="scale(0.6) rotate(180) translate(0,0)" />
    </marker>
    <marker
       inkscape:stockid="Arrow1Mstart"
       orient="auto"
       refY="0"
       refX="0"
       id="Arrow1Mstart-6"
       style="overflow:visible"
       inkscape:isstock="true">
      <path
         inkscape:connector-curvature="0"
         id="path926-7"
         d="M 0,0 5,-5 -12.5,0 5,5 Z"
         style="fill:#000000;fill-opacity:1;fill-rule:evenodd;stroke:#000000;stroke-width:1.00000003pt;stroke-opacity:1"
         transform="matrix(0.4,0,0,0.4,4,0)" />
    </marker>
    <marker
       inkscape:stockid="Arrow1Mstart"
       orient="auto"
       refY="0"
       refX="0"
       id="Arrow1Mstart-3"
       style="overflow:visible"
       inkscape:isstock="true">
      <path
         inkscape:connector-curvature="0"
         id="path926-5"
         d="M 0,0 5,-5 -12.5,0 5,5 Z"
         style="fill:#000000;fill-opacity:1;fill-rule:evenodd;stroke:#000000;stroke-width:1.00000003pt;stroke-opacity:1"
         transform="matrix(0.4,0,0,0.4,4,0)" />
    </marker>
    <marker
       inkscape:stockid="Arrow1Mstart"
       orient="auto"
       refY="0"
       refX="0"
       id="Arrow1Mstart-3-2"
       style="overflow:visible"
       inkscape:isstock="true">
      <path
         inkscape:connector-curvature="0"
         id="path926-5-9"
         d="M 0,0 5,-5 -12.5,0 5,5 Z"
         style="fill:#000000;fill-opacity:1;fill-rule:evenodd;stroke:#000000;stroke-width:1.00000003pt;stroke-opacity:1"
         transform="matrix(0.4,0,0,0.4,4,0)" />
    </marker>
  </defs>
  <metadata
     id="metadata5">
    <rdf:RDF>
      <cc:Work
         rdf:about="">
        <dc:format>image/svg+xml</dc:format>
        <dc:type
           rdf:resource="http://purl.org/dc/dcmitype/StillImage" />
        <dc:title />
      </cc:Work>
    </rdf:RDF>
  </metadata>
  <g
     id="layer1"
     inkscape:groupmode="layer"
     inkscape:label="Livello 1">
    <g
       id="g2458"
       transform="translate(31.805074,2.1381562)">
      <g
         id="g7123"
         transform="rotate(89.268603,76.524237,76.607162)"
         inkscape:export-xdpi="96"
         inkscape:export-ydpi="96">
        <path
           inkscape:connector-curvature="0"
           id="path824"
           d="m 104.7041,109.04173 a 43.16556,42.44339 0 0 0 14.9857,-32.083029 v -0.02655 a 43.16556,42.44339 0 0 0 -16.10173,-32.993431 29.332161,70.800226 0 0 1 0.32248,1.27102 29.332161,70.800226 0 0 1 1.27305,6.375014 29.332161,70.800226 0 0 1 0.70186,4.423679 29.332161,70.800226 0 0 1 0.81673,6.796474 29.332161,70.800226 0 0 1 0.53114,6.960197 29.332161,70.800226 0 0 1 0.24133,7.053109 29.332161,70.800226 0 0 1 -0.0516,7.075238 29.332161,70.800226 0 0 1 -0.3446,7.028773 29.332161,70.800226 0 0 1 -0.63337,6.910418 29.332161,70.800226 0 0 1 -0.91579,6.722358 29.332161,70.800226 0 0 1 -0.82516,4.48673 z"
           style="opacity:0.5;fill:#000000;fill-opacity:1;stroke:#000000;stroke-width:3.2021265;stroke-miterlimit:4;stroke-dasharray:none;stroke-opacity:1" />
        <path
           sodipodi:nodetypes="ccccccccsscccccc"
           inkscape:connector-curvature="0"
           id="path822"
           d="m 53.41865,41.122339 c -12.489782,7.782462 -20.059149,21.30943 -20.059975,35.848528 0.0056,14.034069 7.066203,27.158113 18.861748,35.059813 -0.359013,-1.60222 -0.692279,-3.2373 -0.999045,-4.90156 -0.258832,-1.45046 -0.497489,-2.92142 -0.715561,-4.41041 v 0 l -0.148592,-1.03872 c -0.312104,-2.237219 -0.577653,-4.510708 -0.795655,-6.81196 -0.217705,-2.301445 -0.387589,-4.627737 -0.509008,-6.970148 -0.121414,-2.342263 -0.194218,-4.697717 -0.218148,-7.057538 -0.0239,-2.359578 0.0011,-4.720571 0.07482,-7.074128 0.07367,-2.35401 0.196069,-4.69765 0.36674,-7.022141 0.170736,-2.323981 0.389504,-4.625901 0.655496,-6.897136 0.266132,-2.271603 0.579163,-4.509654 0.937923,-6.70577 0.358506,-2.195936 0.762282,-4.347224 1.209812,-6.445811 0.411211,-1.905771 0.858158,-3.765372 1.339443,-5.573019 z"
           style="opacity:0.5;fill:#000000;fill-opacity:1;stroke:#000000;stroke-width:3.2021265;stroke-miterlimit:4;stroke-dasharray:none;stroke-opacity:1" />
        <g
           transform="translate(78.97803,-21.941613)"
           id="g863">
          <path
             inkscape:connector-curvature="0"
             style="fill:#082947;stroke-width:0.06667696"
             d="m 14.01405,99.183669 c -0.265815,0 -0.481317,-0.232559 -0.481317,-0.51957 0,-2.676475 -5.6731787,-5.542074 -14.11860844,-5.542074 -8.44542996,0 -14.11860756,2.865599 -14.11860756,5.542074 0,0.287011 -0.215501,0.51957 -0.481316,0.51957 -0.265815,0 -0.481316,-0.232628 -0.481316,-0.51957 0,-1.849182 1.628261,-3.543602 4.584761,-4.771171 2.8114001,-1.167231 6.5390971,-1.810043 10.49647856,-1.810043 3.95738144,0 7.68507914,0.642812 10.49647754,1.810043 2.9565019,1.227569 4.5847639,2.921989 4.5847639,4.771171 0,0.286942 -0.215502,0.51957 -0.481316,0.51957 z"
             id="path2" />
          <path
             inkscape:connector-curvature="0"
             style="fill:#274b6d;stroke-width:0.06667696"
             d="m -7.8862864,112.83255 c -0.081631,0 -0.1644172,-0.0224 -0.2402087,-0.0697 -1.4836088,-0.92469 -2.0288439,-3.29407 -1.5353345,-6.67169 0.4692511,-3.21184 1.8173854,-7.018134 3.7961083,-10.717747 1.9787227,-3.699543 4.3582861,-6.863028 6.70037038,-8.907639 2.46305492,-2.150117 4.63648662,-2.825072 6.12009532,-1.900516 0.2301975,0.143471 0.309069,0.46124 0.1761611,0.709732 -0.1329702,0.248493 -0.4272793,0.333425 -0.657477,0.190163 -2.1470556,-1.338342 -7.28289141,2.532728 -11.5055102,10.427899 -4.2226829,7.895238 -4.7602807,14.631698 -2.6130975,15.969908 0.2301975,0.14347 0.3090694,0.46124 0.1761619,0.70973 -0.08914,0.16675 -0.250926,0.25985 -0.4172691,0.25985 z"
             id="path4" />
          <path
             inkscape:connector-curvature="0"
             style="fill:#6da8d6;stroke-width:0.06667696"
             d="m 5.48673,113.16681 c -1.3111694,1.3e-4 -2.9090108,-0.78275 -4.65208092,-2.30439 -2.34208428,-2.04468 -4.72164768,-5.2081 -6.70037038,-8.90771 -1.9787229,-3.699616 -3.3268572,-7.505913 -3.7961083,-10.717683 -0.4934454,-3.377688 0.05179,-5.747063 1.5353345,-6.671689 0.2301974,-0.143402 0.5245702,-0.0584 0.6574778,0.190162 0.1329075,0.248493 0.054036,0.566262 -0.1761619,0.709732 -1.0981706,0.684446 -1.4866892,2.729195 -1.0657623,5.609897 0.451282,3.088875 1.7578309,6.76812 3.6788598,10.360011 3.671929,6.86545 8.0345787,10.68782 10.5218922,10.68823 0.3730523,7e-5 0.7035559,-0.0858 0.983618,-0.2604 0.2301977,-0.1434 0.5245713,-0.0584 0.657477,0.19016 0.1329079,0.24849 0.054036,0.56626 -0.1761611,0.70973 -0.4336338,0.27032 -0.9265018,0.40395 -1.4680144,0.40395 z"
             id="path6" />
          <path
             inkscape:connector-curvature="0"
             style="fill:#082947;stroke-width:0.06667696"
             d="m -0.58587544,105.24531 c -3.95744556,0 -7.68514286,-0.64281 -10.49647856,-1.81004 -2.9565,-1.2275 -4.584761,-2.92199 -4.584761,-4.771171 0,-0.28701 0.215501,-0.519569 0.481316,-0.519569 0.265815,0 0.481316,0.232559 0.481316,0.519569 0,2.676481 5.6731776,5.542071 14.11860756,5.542071 8.44542974,0 14.11860844,-2.86559 14.11860844,-5.542071 0,-0.28701 0.215502,-0.519569 0.481317,-0.519569 0.265814,0 0.481316,0.232559 0.481316,0.519569 0,1.849181 -1.628262,3.543671 -4.5847639,4.771171 -2.8113338,1.16723 -6.5390317,1.81004 -10.49647754,1.81004 z"
             id="path8" />
          <ellipse
             style="fill:#6da8d6;stroke-width:0.06667696"
             cx="-12.497038"
             cy="95.204254"
             id="circle10"
             rx="1.2835097"
             ry="1.3855187" />
          <ellipse
             style="fill:#f2484b;stroke-width:0.06667696"
             cx="2.6196263"
             cy="111.60131"
             id="circle12"
             rx="1.2833172"
             ry="1.3853109" />
          <ellipse
             style="fill:#f2484b;stroke-width:0.06667696"
             cx="-9.3557119"
             cy="89.210915"
             id="circle14"
             rx="1.2833172"
             ry="1.3853109" />
          <ellipse
             style="fill:#f48205;stroke-width:0.06667696"
             cx="-0.58587599"
             cy="98.664101"
             id="circle16"
             rx="2.887897"
             ry="3.1174173" />
          <path
             inkscape:connector-curvature="0"
             style="fill:#274b6d;stroke-width:0.06667696"
             d="m -6.6584809,113.16681 c -0.5416408,0 -1.0342519,-0.13356 -1.4680142,-0.40388 -0.2301975,-0.14347 -0.3090694,-0.46124 -0.176162,-0.70973 0.1329077,-0.24856 0.4272804,-0.33363 0.6574779,-0.19016 2.1471838,1.33841 7.28282732,-2.53273 11.5055102,-10.42783 C 5.7814241,97.843319 7.0879084,94.164073 7.53919,91.075198 7.9600523,88.194496 7.5716,86.149748 6.4734285,85.465301 6.2432311,85.321831 6.1643592,85.004062 6.2972666,84.755569 6.4301743,84.507007 6.724547,84.421936 6.9547444,84.565407 c 1.4836088,0.924626 2.0288446,3.294002 1.5353341,6.671689 -0.46925,3.21177 -1.8173859,7.018068 -3.7961079,10.717684 -1.9787229,3.69961 -4.35828626,6.86303 -6.7003703,8.9077 -1.7429424,1.52144 -3.3409759,2.30433 -4.6520812,2.30433 z"
             id="path18" />
          <path
             inkscape:connector-curvature="0"
             style="fill:#6da8d6;stroke-width:0.06667696"
             d="m 6.7145364,112.83255 c -0.166344,0 -0.3281303,-0.0932 -0.4172698,-0.25985 -0.1329074,-0.24849 -0.054036,-0.56626 0.1761619,-0.70973 2.1471821,-1.33821 1.6095856,-8.07474 -2.6130975,-15.969908 -4.22268288,-7.895171 -9.3583264,-11.765964 -11.5055102,-10.42783 -0.2301975,0.143332 -0.5245702,0.0584 -0.6574779,-0.190162 -0.1329074,-0.248493 -0.054036,-0.566262 0.176162,-0.709732 1.4836729,-0.924696 3.6571046,-0.249671 6.1200954,1.900516 2.34214838,2.04461 4.7217117,5.208096 6.7003703,8.907638 1.978722,3.699613 3.3268579,7.505908 3.7961079,10.717748 0.493446,3.37762 -0.05179,5.747 -1.5353341,6.67169 -0.075792,0.0472 -0.1585779,0.0696 -0.240208,0.0696 z"
             id="path20" />
          <ellipse
             style="fill:#6da8d6;stroke-width:0.06667696"
             cx="8.1839619"
             cy="89.210915"
             id="circle22"
             rx="1.2833172"
             ry="1.3853109" />
        </g>
      </g>
      <g
         transform="translate(-13.630746,38.219542)"
         id="g887"
         inkscape:export-xdpi="96"
         inkscape:export-ydpi="96">
        <g
           style="font-style:normal;font-variant:normal;font-weight:normal;font-stretch:normal;letter-spacing:normal;word-spacing:normal;text-anchor:start;fill:none;fill-opacity:1;fill-rule:evenodd;stroke:#000000;stroke-linecap:butt;stroke-linejoin:miter;stroke-miterlimit:10.43299961;stroke-dasharray:none;stroke-dashoffset:0;stroke-opacity:1"
           id="content"
           transform="matrix(0.3,0,0,-0.3,-52.5,222.75)"
           xml:space="preserve"
           stroke-miterlimit="10.433"
           font-style="normal"
           font-variant="normal"
           font-weight="normal"
           font-stretch="normal"
           font-size-adjust="none"
           letter-spacing="normal"
           word-spacing="normal"><path
             style="fill:#000000;stroke-width:0"
             inkscape:connector-curvature="0"
             d="m 493.38,440.82 v 0.02 0.02 0.01 l -0.01,0.02 v 0.02 0.02 l -0.01,0.02 v 0.02 l -0.01,0.02 -0.01,0.02 -0.01,0.02 v 0.02 l -0.02,0.02 -0.01,0.02 -0.01,0.02 -0.01,0.02 -0.02,0.02 -0.02,0.02 -0.02,0.02 -0.02,0.02 -0.02,0.01 -0.02,0.02 -0.03,0.01 -0.02,0.02 -0.03,0.01 -0.01,0.01 h -0.02 l -0.01,0.01 h -0.02 l -0.02,0.01 h -0.01 -0.02 l -0.02,0.01 h -0.02 -0.02 -0.02 -0.02 -0.02 -0.02 c -0.14,0 -0.2,-0.04 -0.75,-0.59 l -3.48,-3.84 c -0.44,0.7 -2.74,4.43 -8.27,4.43 -11.11,0 -22.33,-11.01 -22.33,-22.56 0,-8.23 5.89,-13.65 13.52,-13.65 4.33,0 8.11,1.98 10.75,4.28 4.64,4.09 5.48,8.62 5.48,8.76 0,0.5 -0.5,0.5 -0.59,0.5 -0.3,0 -0.55,-0.09 -0.66,-0.5 -0.43,-1.44 -1.59,-4.98 -5.03,-7.87 -3.43,-2.78 -6.58,-3.63 -9.15,-3.63 -4.49,0 -9.77,2.6 -9.77,10.36 0,2.85 1.05,10.91 6.02,16.74 3.04,3.54 7.73,6.03 12.15,6.03 5.1,0 8.03,-3.83 8.03,-9.61 0,-2 -0.15,-2.05 -0.15,-2.55 0,-0.5 0.54,-0.5 0.75,-0.5 0.64,0 0.64,0.11 0.89,1 z"
             id="path882" /><path
             style="fill:#000000;stroke-width:0"
             inkscape:connector-curvature="0"
             d="m 514.24,424.84 -0.13,-0.01 -0.13,-0.01 -0.12,-0.02 -0.12,-0.03 -0.12,-0.03 -0.12,-0.04 -0.11,-0.04 -0.11,-0.04 -0.11,-0.05 -0.11,-0.06 -0.1,-0.06 -0.09,-0.06 -0.09,-0.07 -0.09,-0.07 -0.09,-0.07 -0.08,-0.08 -0.08,-0.08 -0.07,-0.08 -0.07,-0.09 -0.06,-0.08 -0.06,-0.09 -0.06,-0.1 -0.05,-0.09 -0.04,-0.1 -0.04,-0.09 -0.04,-0.1 -0.03,-0.1 -0.02,-0.1 -0.02,-0.1 -0.02,-0.11 -0.01,-0.1 v -0.1 c 0,-0.7 0.44,-1.44 1.55,-1.44 1.09,0 2.28,0.85 2.28,2.78 0,2.25 -2.14,4.28 -5.92,4.28 -6.58,0 -8.42,-5.07 -8.42,-7.26 0,-3.89 3.68,-4.64 5.12,-4.94 2.59,-0.5 5.19,-1.05 5.19,-3.78 0,-1.3 -1.14,-5.48 -7.13,-5.48 -0.7,0 -4.53,0 -5.68,2.64 1.9,-0.25 3.14,1.25 3.14,2.64 0,1.14 -0.8,1.75 -1.85,1.75 -1.29,0 -2.78,-1.05 -2.78,-3.3 0,-2.84 2.85,-4.83 7.13,-4.83 8.06,0 10.01,6.03 10.01,8.27 0,1.79 -0.95,3.04 -1.54,3.64 -1.35,1.39 -2.8,1.64 -4.99,2.09 -1.8,0.39 -3.78,0.75 -3.78,2.99 0,1.45 1.19,4.48 5.58,4.48 1.23,0 3.73,-0.34 4.48,-2.28 z"
             id="path884" /></g>      </g>
    </g>
    <g
       id="g1235"
       transform="matrix(0.73261807,0,0,0.80904418,25.888796,10.30138)"
       inkscape:export-xdpi="96"
       inkscape:export-ydpi="96">
      <path
         sodipodi:nodetypes="csssssssssssssc"
         inkscape:connector-curvature="0"
         id="path2-3"
         d="m 225.48141,39.353413 -6.42037,3.905411 c -0.87852,0.534387 -0.20914,3.155276 -1.3074,3.82326 -1.09816,0.667998 -5.06868,-3.610262 -6.05702,-3.009069 -0.98834,0.601193 5.68084,11.525038 4.25322,12.393434 -1.4276,0.868386 -12.78647,-12.940038 -14.32389,-12.004856 -1.53742,0.935193 11.97463,21.083547 10.54703,21.951934 -1.4276,0.868386 -19.43808,-22.121525 -21.08531,-21.119536 -1.64723,1.001978 15.58375,26.378464 14.37577,27.113248 -1.20797,0.734795 -19.46642,-21.944909 -21.00384,-21.009716 -1.53741,0.935182 12.54846,21.212587 10.90124,22.214575 -1.64746,1.002117 -13.41724,-12.715719 -14.62522,-11.980934 -1.20797,0.734794 3.88865,9.109103 2.35123,10.044285 -1.53742,0.935192 -3.91741,-3.991825 -5.67446,-2.923041 l -7.10823,4.32383"
         style="fill:none;stroke:#000000;stroke-width:0.79400003;stroke-miterlimit:10;stroke-dasharray:none;marker-start:url(#Arrow1Mstart)" />
      <path
         sodipodi:nodetypes="csssssssssssssc"
         inkscape:connector-curvature="0"
         id="path2-3-5"
         d="m 225.15414,137.10827 -6.41597,-3.91129 c -0.87793,-0.5352 -3.30594,1.01475 -4.40339,0.34565 -1.09739,-0.66899 1.78048,-5.61262 0.79282,-6.21472 -0.98766,-0.60209 -9.6444,9.11146 -11.07102,8.24173 -1.42662,-0.8697 8.41134,-15.60428 6.87495,-16.54087 -1.53635,-0.93661 -17.04628,17.99515 -18.47291,17.12544 -1.42664,-0.86969 15.29269,-24.64586 13.64658,-25.64936 -1.64611,-1.0035 -21.10031,23.01916 -22.30747,22.28325 -1.20714,-0.73588 15.10136,-24.603 13.565,-25.53959 -1.53637,-0.93661 -16.96183,18.52506 -18.60792,17.52156 -1.64634,-1.00365 7.94397,-16.04866 6.73682,-16.78455 -1.20714,-0.73592 -7.8495,6.69712 -9.38585,5.76052 -1.53639,-0.9366 2.60498,-4.79103 0.84912,-5.86143 l -7.10338,-4.33034"
         style="fill:none;stroke:#000000;stroke-width:0.79400003;stroke-miterlimit:10;stroke-dasharray:none;marker-start:url(#Arrow1Mstart-6)"
         inkscape:transform-center-x="-71.693221"
         inkscape:transform-center-y="52.800891" />
      <path
         sodipodi:nodetypes="csssssssssssssc"
         inkscape:connector-curvature="0"
         id="path2-3-6"
         d="m 59.193308,104.21662 -7.010351,2.95883 c -0.959249,0.40487 -0.745748,3.08798 -1.944917,3.59404 -1.199073,0.5061 -4.390775,-4.27695 -5.469935,-3.82147 -1.079162,0.45549 3.643205,12.18218 2.084398,12.84011 -1.558784,0.6579 -10.421493,-14.57571 -12.100189,-13.86719 -1.678697,0.70852 8.22799,22.5074 6.669206,23.1653 -1.558786,0.65792 -15.42421,-24.57856 -17.222809,-23.81943 -1.798596,0.75913 10.888934,28.24422 9.569951,28.80091 -1.318973,0.5567 -15.482385,-24.40805 -17.161082,-23.69952 -1.678686,0.70851 8.772861,22.71528 6.974272,23.47441 -1.798846,0.75922 -11.082994,-14.44245 -12.401976,-13.88577 -1.3189744,0.5567 2.285396,9.54424 0.6067,10.25276 -1.678697,0.70852 -3.1881724,-4.49262 -5.1066824,-3.68288 l -7.761419,3.27583"
         style="fill:none;stroke:#000000;stroke-width:0.79400003;stroke-miterlimit:10;stroke-dasharray:none;marker-start:url(#Arrow1Mstart-3)" />
      <path
         sodipodi:nodetypes="csssssssssssssc"
         inkscape:connector-curvature="0"
         id="path2-3-6-1"
         d="m 60.09591,77.704516 -6.741765,-3.432698 c -0.9225,-0.469704 -3.205401,1.251617 -4.358565,0.664391 -1.153144,-0.587132 1.277607,-5.723847 0.23979,-6.252268 -1.037828,-0.528417 -8.806257,9.782564 -10.305352,9.019283 C 37.430963,76.93994 45.932107,61.538289 44.317725,60.716294 42.703344,59.894301 28.920263,79.89157 27.42121,79.128289 25.922137,78.365018 40.481608,53.451098 38.751916,52.570395 37.022226,51.689694 19.758521,77.047939 18.49008,76.402081 17.221635,75.756234 31.363576,50.781496 29.749186,49.959508 28.13482,49.137516 14.482866,69.656853 12.75318,68.776158 11.023263,67.895325 19.250058,52.202222 17.981625,51.556357 16.713179,50.91051 10.750613,58.802039 9.1362235,57.980052 7.5218423,57.158058 11.308458,53.015248 9.4634403,52.075835 l -7.464058,-3.800468"
         style="fill:none;stroke:#000000;stroke-width:0.79400003;stroke-miterlimit:10;stroke-dasharray:none;marker-start:url(#Arrow1Mstart-3-2)" />
    </g>
  </g>
</svg>
