<?xml version="1.0" encoding="utf-8"?>
<!-- Generator: Adobe Illustrator 16.0.4, SVG Export Plug-In . SVG Version: 6.00 Build 0)  -->
<!DOCTYPE svg PUBLIC "-//W3C//DTD SVG 1.1//EN" "http://www.w3.org/Graphics/SVG/1.1/DTD/svg11.dtd">
<svg version="1.1" id="Layer_1" xmlns="http://www.w3.org/2000/svg" xmlns:xlink="http://www.w3.org/1999/xlink" x="0px" y="0px"
	 width="615.263px" height="268.487px" viewBox="0 0 615.263 268.487" enable-background="new 0 0 615.263 268.487"
	 xml:space="preserve">
<path fill="none" stroke="#000000" stroke-width="3" stroke-miterlimit="10" d="M615.263,194.99c0,0-214.131,0-218.131,0
	s-8,9.5-13,9.5s-7.5-21-12-21s-9,47-15.5,47s-10-65-17-65s-11.5,89-18,89s-9.5-106.5-17-106.5s-12.5,112.5-18,112.5s-10-106-17-106
	s-10,90.5-17.5,90.5c-7.501,0-12.501-65.5-18.001-65.5s-9,36-16,36s-3-20-11-20H-1"/>
<g id="g2361">
	<path id="path2363" fill="none" stroke="#000000" stroke-width="3" d="M76.908,102.396"/>
	<g id="g2365" transform="translate(28,611)">
	</g>
</g>
<g id="g2373">
	<path id="path2375" fill="none" stroke="#1A1A1A" stroke-width="3" d="M76.908,56.005"/>
	<g id="g2377" transform="translate(28,380)">
	</g>
</g>
<g id="g2385">
	<path id="path2387" fill="none" stroke="#1A1A1A" stroke-width="3" d="M76.908,9.614"/>
	<g id="g2389" transform="translate(28,149)">
	</g>
</g>
<g id="g2397">
	<path id="path2399" fill="none" stroke="#000000" stroke-width="0.3564" d="M-360.5-76.31"/>
	<g id="g2401" transform="translate(41,757)">
	</g>
</g>
<g id="g2409">
	<path id="path2411" fill="none" stroke="#000000" stroke-width="0.3564" d="M-305.971-76.31"/>
	<g id="g2413" transform="translate(194,757)">
	</g>
</g>
<g id="g2457">
	<path id="path2459" fill="none" stroke="#000000" stroke-width="0.3564" d="M-87.853-76.31"/>
	<g id="g2461" transform="translate(806,757)">
	</g>
</g>
<g id="g2469">
	<path id="path2471" fill="none" stroke="#1A1A1A" stroke-width="3" d="M76.908-13.682"/>
	<g id="g2473" transform="translate(959,757)">
	</g>
</g>
<g id="g2485">
	<path id="path2487" fill="none" stroke="#1A1A1A" stroke-width="3" stroke-linecap="round" stroke-linejoin="round" d="M0,56.005
		l0.754-4.418l0.838-4.419l0.754-4.217L3.1,38.734l0.754-4.017l0.838-3.816l0.753-3.614l0.754-3.414l0.754-3.012l0.838-2.611
		l0.754-2.41l0.754-2.008l0.838-1.808l0.754-1.205l0.754-0.804l0.754-0.401h0.838l0.754,0.401l0.753,0.804l0.754,1.205l0.838,1.808
		l0.754,2.008l0.754,2.41l0.838,2.611l0.754,3.012l0.754,3.414l0.754,3.614l0.838,3.816l0.754,4.017l0.754,4.217l0.753,4.217
		l0.838,4.419l0.753,4.418l0.754,4.418l0.838,4.418l0.754,4.217l0.754,4.217l0.754,4.017l0.838,3.816l0.753,3.615l0.755,3.414
		l0.754,3.013l0.837,2.61l0.754,2.411l0.754,2.007l0.838,1.808l0.754,1.205l0.754,0.804l0.754,0.402h0.838l0.754-0.402l0.753-0.804
		l0.754-1.205l0.838-1.808l0.753-2.007l0.754-2.411l0.838-2.61l0.754-3.013l0.754-3.414l0.754-3.615l0.838-3.816l0.754-4.017
		l0.754-4.217l0.753-4.217l0.838-4.418l0.754-4.418l0.753-4.418l0.838-4.419l0.754-4.217l0.754-4.217l0.754-4.017l0.838-3.816
		l0.754-3.614l0.754-3.414l0.754-3.012l0.837-2.611l0.754-2.41l0.754-2.008l0.837-1.808l0.754-1.205l0.754-0.804l0.754-0.401h0.838
		l0.754,0.401l0.754,0.804l0.754,1.205l0.838,1.808l0.753,2.008l0.754,2.41l0.838,2.611l0.754,3.012l0.754,3.414l0.754,3.614
		l0.838,3.816l0.754,4.017l0.754,4.217l0.754,4.217l0.838,4.419l0.754,4.418"/>
</g>
<g id="g2485_1_">
	<path id="path2487_1_" fill="none" stroke="#1A1A1A" stroke-width="3" stroke-linecap="round" stroke-linejoin="round" d="
		M153.815,56.005l-0.753,4.418l-0.838,4.418l-0.754,4.217l-0.754,4.217l-0.754,4.017l-0.837,3.816l-0.754,3.615l-0.753,3.414
		l-0.754,3.013l-0.838,2.61l-0.754,2.411l-0.754,2.007l-0.838,1.808l-0.754,1.205l-0.753,0.804l-0.754,0.402h-0.838l-0.754-0.402
		l-0.754-0.804l-0.754-1.205l-0.838-1.808l-0.754-2.007l-0.754-2.411l-0.838-2.61l-0.754-3.013l-0.754-3.414l-0.753-3.615
		l-0.838-3.816l-0.754-4.017l-0.754-4.217l-0.754-4.217l-0.838-4.418l-0.754-4.418l-0.754-4.418l-0.838-4.419l-0.754-4.217
		l-0.754-4.217l-0.754-4.017l-0.838-3.816l-0.754-3.614l-0.754-3.414l-0.754-3.012l-0.838-2.611l-0.754-2.41l-0.754-2.008
		l-0.838-1.808l-0.754-1.205l-0.754-0.804l-0.754-0.401h-0.838l-0.754,0.401l-0.754,0.804l-0.754,1.205l-0.838,1.808l-0.753,2.008
		l-0.754,2.41l-0.838,2.611l-0.754,3.012l-0.754,3.414l-0.754,3.614l-0.838,3.816l-0.754,4.017l-0.754,4.217l-0.754,4.217
		l-0.838,4.419l-0.754,4.418l-0.754,4.418l-0.838,4.418l-0.754,4.217l-0.753,4.217l-0.754,4.017l-0.838,3.816l-0.754,3.615
		l-0.754,3.414L95.59,91.15l-0.837,2.61l-0.754,2.411l-0.754,2.007l-0.837,1.808l-0.754,1.205l-0.754,0.804l-0.753,0.402h-0.838
		l-0.754-0.402l-0.753-0.804l-0.754-1.205l-0.837-1.808l-0.754-2.007L84.7,93.76l-0.838-2.61l-0.754-3.013l-0.754-3.414L81.6,81.108
		l-0.838-3.816l-0.754-4.017l-0.754-4.217L78.5,64.841l-0.838-4.418l-0.753-4.418"/>
</g>
<g id="g2361_1_">
	<path id="path2363_1_" fill="none" stroke="#000000" stroke-width="3" d="M230.724,102.396"/>
	<g id="g2365_1_" transform="translate(28,611)">
	</g>
</g>
<g id="g2373_1_">
	<path id="path2375_1_" fill="none" stroke="#1A1A1A" stroke-width="3" d="M230.724,56.005"/>
	<g id="g2377_1_" transform="translate(28,380)">
	</g>
</g>
<g id="g2385_1_">
	<path id="path2387_1_" fill="none" stroke="#1A1A1A" stroke-width="3" d="M230.724,9.614"/>
	<g id="g2389_1_" transform="translate(28,149)">
	</g>
</g>
<g id="g2409_1_">
	<path id="path2411_1_" fill="none" stroke="#1A1A1A" stroke-width="3" d="M166.634-13.682"/>
	<g id="g2413_1_" transform="translate(194,757)">
	</g>
</g>
<g id="g2457_1_">
	<path id="path2459_1_" fill="none" stroke="#1A1A1A" stroke-width="3" d="M217.906-13.682"/>
	<g id="g2461_1_" transform="translate(806,757)">
	</g>
</g>
<g id="g2469_1_">
	<path id="path2471_1_" fill="none" stroke="#1A1A1A" stroke-width="3" d="M230.724-13.682"/>
	<g id="g2473_1_" transform="translate(959,757)">
	</g>
</g>
<g id="g2485_3_">
	<path id="path2487_3_" fill="none" stroke="#1A1A1A" stroke-width="3" stroke-linecap="round" stroke-linejoin="round" d="
		M153.815,56.005l0.754-4.418l0.838-4.419l0.754-4.217l0.754-4.217l0.754-4.017l0.837-3.816l0.754-3.614l0.753-3.414l0.754-3.012
		l0.838-2.611l0.754-2.41l0.753-2.008l0.838-1.808l0.754-1.205l0.753-0.804l0.755-0.401h0.837l0.754,0.401l0.753,0.804l0.754,1.205
		l0.837,1.808l0.755,2.008l0.753,2.41l0.838,2.611l0.754,3.012l0.754,3.414l0.753,3.614l0.838,3.816l0.754,4.017l0.753,4.217
		l0.754,4.217l0.837,4.419l0.754,4.418l0.754,4.418l0.837,4.418l0.754,4.217l0.754,4.217l0.753,4.017l0.837,3.816l0.754,3.615
		l0.754,3.414l0.754,3.013l0.837,2.61l0.753,2.411l0.754,2.007l0.837,1.808l0.755,1.205l0.753,0.804l0.754,0.402h0.837l0.754-0.402
		l0.753-0.804l0.754-1.205l0.838-1.808l0.754-2.007l0.753-2.411l0.838-2.61l0.754-3.013l0.754-3.414l0.754-3.615l0.837-3.816
		l0.754-4.017l0.753-4.217l0.754-4.217l0.837-4.418l0.755-4.418l0.753-4.418l0.838-4.419l0.753-4.217l0.753-4.217l0.755-4.017
		l0.837-3.816l0.754-3.614l0.753-3.414l0.754-3.012l0.837-2.611l0.754-2.41l0.754-2.008l0.838-1.808l0.753-1.205l0.754-0.804
		l0.753-0.401h0.838l0.754,0.401l0.753,0.804l0.754,1.205l0.837,1.808l0.754,2.008l0.753,2.41l0.838,2.611l0.754,3.012l0.754,3.414
		l0.753,3.614l0.838,3.816l0.754,4.017l0.754,4.217l0.754,4.217l0.838,4.419l0.754,4.418"/>
</g>
<g id="g2485_2_">
	<path id="path2487_2_" fill="none" stroke="#1A1A1A" stroke-width="3" stroke-linecap="round" stroke-linejoin="round" d="
		M307.632,56.005l-0.755,4.418l-0.837,4.418l-0.754,4.217l-0.754,4.217l-0.755,4.017l-0.837,3.816l-0.754,3.615l-0.755,3.414
		l-0.753,3.013l-0.839,2.61l-0.753,2.411l-0.754,2.007l-0.839,1.808l-0.753,1.205l-0.755,0.804l-0.754,0.402h-0.838l-0.753-0.402
		l-0.754-0.804l-0.755-1.205l-0.837-1.808l-0.755-2.007l-0.754-2.411l-0.838-2.61l-0.754-3.013l-0.754-3.414l-0.754-3.615
		l-0.838-3.816l-0.754-4.017l-0.754-4.217l-0.754-4.217l-0.839-4.418l-0.753-4.418l-0.755-4.418l-0.837-4.419l-0.754-4.217
		l-0.754-4.217l-0.754-4.017l-0.839-3.816l-0.753-3.614l-0.755-3.414l-0.753-3.012l-0.839-2.611l-0.754-2.41l-0.753-2.008
		l-0.839-1.808l-0.753-1.205l-0.755-0.804l-0.753-0.401h-0.839l-0.754,0.401l-0.754,0.804l-0.754,1.205l-0.838,1.808l-0.754,2.008
		l-0.755,2.41l-0.837,2.611l-0.755,3.012l-0.753,3.414l-0.754,3.614l-0.838,3.816l-0.754,4.017l-0.755,4.217l-0.753,4.217
		l-0.839,4.419l-0.753,4.418l-0.755,4.418l-0.837,4.418l-0.755,4.217l-0.754,4.217l-0.753,4.017l-0.839,3.816l-0.754,3.615
		l-0.754,3.414l-0.754,3.013l-0.837,2.61l-0.755,2.411l-0.754,2.007l-0.838,1.808l-0.753,1.205l-0.755,0.804l-0.754,0.402h-0.837
		l-0.754-0.402l-0.754-0.804l-0.753-1.205l-0.838-1.808l-0.753-2.007l-0.754-2.411l-0.838-2.61l-0.754-3.013l-0.754-3.414
		l-0.754-3.615l-0.838-3.816l-0.754-4.017l-0.754-4.217l-0.753-4.217l-0.838-4.418l-0.753-4.418"/>
</g>
<g id="g2361_3_">
	<path id="path2363_3_" fill="none" stroke="#000000" stroke-width="3" d="M384.54,102.396"/>
	<g id="g2365_3_" transform="translate(28,611)">
	</g>
</g>
<g id="g2373_3_">
	<path id="path2375_3_" fill="none" stroke="#1A1A1A" stroke-width="3" d="M384.54,56.005"/>
	<g id="g2377_3_" transform="translate(28,380)">
	</g>
</g>
<g id="g2385_3_">
	<path id="path2387_3_" fill="none" stroke="#1A1A1A" stroke-width="3" d="M384.54,9.614"/>
	<g id="g2389_3_" transform="translate(28,149)">
	</g>
</g>
<g id="g2469_3_">
	<path id="path2471_3_" fill="none" stroke="#1A1A1A" stroke-width="3" d="M384.54-13.682"/>
	<g id="g2473_3_" transform="translate(959,757)">
	</g>
</g>
<g id="g2485_7_">
	<path id="path2487_7_" fill="none" stroke="#1A1A1A" stroke-width="3" stroke-linecap="round" stroke-linejoin="round" d="
		M307.632,56.005l0.754-4.418l0.838-4.419l0.754-4.217l0.754-4.217l0.754-4.017l0.838-3.816l0.754-3.614l0.754-3.414l0.754-3.012
		l0.838-2.611l0.754-2.41l0.754-2.008l0.838-1.808l0.754-1.205l0.754-0.804l0.754-0.401h0.838l0.754,0.401l0.754,0.804l0.754,1.205
		l0.838,1.808l0.754,2.008l0.754,2.41l0.838,2.611l0.754,3.012l0.754,3.414l0.754,3.614l0.838,3.816l0.755,4.017l0.754,4.217
		l0.753,4.217l0.839,4.419l0.753,4.418l0.755,4.418l0.838,4.418l0.754,4.217l0.754,4.217l0.754,4.017l0.838,3.816l0.753,3.615
		l0.756,3.414l0.754,3.013l0.837,2.61l0.754,2.411l0.754,2.007l0.838,1.808l0.755,1.205l0.754,0.804l0.754,0.402h0.838l0.754-0.402
		l0.753-0.804l0.755-1.205l0.838-1.808l0.754-2.007l0.754-2.411l0.838-2.61l0.754-3.013l0.754-3.414l0.754-3.615l0.838-3.816
		l0.754-4.017l0.754-4.217l0.754-4.217l0.838-4.418l0.754-4.418l0.754-4.418l0.838-4.419l0.754-4.217l0.754-4.217l0.754-4.017
		l0.838-3.816l0.754-3.614l0.754-3.414l0.754-3.012l0.838-2.611l0.754-2.41l0.755-2.008l0.837-1.808l0.754-1.205l0.754-0.804
		l0.754-0.401h0.838l0.755,0.401l0.754,0.804l0.754,1.205l0.838,1.808l0.753,2.008l0.754,2.41l0.838,2.611l0.754,3.012l0.754,3.414
		l0.754,3.614l0.838,3.816l0.754,4.017l0.756,4.217l0.754,4.217l0.838,4.419l0.754,4.418"/>
</g>
<g id="g2485_6_">
	<path id="path2487_6_" fill="none" stroke="#1A1A1A" stroke-width="3" stroke-linecap="round" stroke-linejoin="round" d="
		M461.446,56.005l-0.754,4.418l-0.838,4.418l-0.754,4.217l-0.754,4.217l-0.754,4.017l-0.838,3.816l-0.754,3.615l-0.754,3.414
		l-0.754,3.013l-0.838,2.61l-0.754,2.411l-0.754,2.007l-0.838,1.808l-0.754,1.205l-0.754,0.804l-0.754,0.402h-0.838l-0.754-0.402
		l-0.754-0.804l-0.754-1.205l-0.838-1.808l-0.754-2.007l-0.754-2.411l-0.838-2.61l-0.754-3.013l-0.754-3.414l-0.754-3.615
		l-0.838-3.816l-0.754-4.017l-0.754-4.217l-0.754-4.217l-0.838-4.418l-0.754-4.418l-0.754-4.418l-0.838-4.419l-0.754-4.217
		l-0.754-4.217l-0.754-4.017l-0.838-3.816l-0.754-3.614l-0.754-3.414l-0.754-3.012l-0.838-2.611l-0.754-2.41l-0.754-2.008
		l-0.838-1.808l-0.756-1.205l-0.754-0.804l-0.754-0.401h-0.838l-0.754,0.401l-0.754,0.804l-0.754,1.205l-0.838,1.808l-0.754,2.008
		l-0.754,2.41l-0.838,2.611l-0.754,3.012l-0.754,3.414l-0.754,3.614l-0.838,3.816l-0.754,4.017l-0.754,4.217l-0.754,4.217
		l-0.838,4.419l-0.754,4.418l-0.754,4.418l-0.838,4.418l-0.754,4.217l-0.754,4.217l-0.754,4.017l-0.838,3.816l-0.754,3.615
		l-0.754,3.414l-0.754,3.013l-0.838,2.61l-0.754,2.411l-0.754,2.007l-0.838,1.808l-0.754,1.205l-0.754,0.804l-0.754,0.402h-0.838
		l-0.754-0.402l-0.754-0.804l-0.754-1.205l-0.838-1.808l-0.754-2.007l-0.754-2.411l-0.838-2.61l-0.754-3.013l-0.754-3.414
		l-0.754-3.615l-0.838-3.816l-0.754-4.017l-0.756-4.217l-0.752-4.217l-0.84-4.418l-0.752-4.418"/>
</g>
<g id="g2361_2_">
	<path id="path2363_2_" fill="none" stroke="#000000" stroke-width="3" d="M538.354,102.396"/>
	<g id="g2365_2_" transform="translate(28,611)">
	</g>
</g>
<g id="g2373_2_">
	<path id="path2375_2_" fill="none" stroke="#1A1A1A" stroke-width="3" d="M538.354,56.005"/>
	<g id="g2377_2_" transform="translate(28,380)">
	</g>
</g>
<g id="g2385_2_">
	<path id="path2387_2_" fill="none" stroke="#1A1A1A" stroke-width="3" d="M538.354,9.614"/>
	<g id="g2389_2_" transform="translate(28,149)">
	</g>
</g>
<g id="g2409_2_">
	<path id="path2411_2_" fill="none" stroke="#1A1A1A" stroke-width="3" d="M474.265-13.682"/>
	<g id="g2413_2_" transform="translate(194,757)">
	</g>
</g>
<g id="g2457_2_">
	<path id="path2459_2_" fill="none" stroke="#1A1A1A" stroke-width="3" d="M525.536-13.682"/>
	<g id="g2461_2_" transform="translate(806,757)">
	</g>
</g>
<g id="g2469_2_">
	<path id="path2471_2_" fill="none" stroke="#1A1A1A" stroke-width="3" d="M538.354-13.682"/>
	<g id="g2473_2_" transform="translate(959,757)">
	</g>
</g>
<g id="g2485_5_">
	<path id="path2487_5_" fill="none" stroke="#1A1A1A" stroke-width="3" stroke-linecap="round" stroke-linejoin="round" d="
		M461.446,56.005l0.754-4.418l0.838-4.419l0.754-4.217l0.754-4.217l0.756-4.017l0.836-3.816l0.756-3.614l0.752-3.414l0.756-3.012
		l0.838-2.611l0.754-2.41l0.754-2.008l0.838-1.808l0.754-1.205l0.752-0.804l0.756-0.401h0.838l0.754,0.401l0.754,0.804l0.754,1.205
		l0.838,1.808l0.754,2.008l0.754,2.41l0.838,2.611l0.754,3.012l0.754,3.414l0.754,3.614l0.838,3.816l0.754,4.017l0.754,4.217
		l0.754,4.217l0.838,4.419l0.754,4.418l0.754,4.418l0.838,4.418l0.754,4.217l0.754,4.217l0.754,4.017l0.838,3.816l0.754,3.615
		l0.754,3.414l0.754,3.013l0.838,2.61l0.754,2.411l0.754,2.007l0.838,1.808l0.754,1.205l0.754,0.804l0.754,0.402h0.838l0.754-0.402
		l0.754-0.804l0.754-1.205l0.838-1.808l0.756-2.007l0.752-2.411l0.838-2.61l0.754-3.013l0.754-3.414l0.756-3.615l0.836-3.816
		l0.756-4.017l0.752-4.217l0.756-4.217l0.836-4.418l0.756-4.418l0.754-4.418l0.838-4.419l0.754-4.217l0.752-4.217l0.756-4.017
		l0.838-3.816l0.754-3.614l0.754-3.414l0.754-3.012l0.838-2.611l0.754-2.41l0.754-2.008l0.838-1.808l0.754-1.205l0.754-0.804
		l0.754-0.401h0.838l0.754,0.401l0.754,0.804l0.754,1.205l0.838,1.808l0.754,2.008l0.754,2.41l0.838,2.611l0.754,3.012l0.754,3.414
		l0.754,3.614l0.838,3.816l0.754,4.017l0.754,4.217l0.754,4.217l0.838,4.419l0.754,4.418"/>
</g>
<g id="g2485_4_">
	<path id="path2487_4_" fill="none" stroke="#1A1A1A" stroke-width="3" stroke-linecap="round" stroke-linejoin="round" d="
		M615.263,56.005l-0.754,4.418l-0.838,4.418l-0.754,4.217l-0.754,4.217l-0.754,4.017l-0.838,3.816l-0.754,3.615l-0.754,3.414
		l-0.754,3.013l-0.838,2.61l-0.754,2.411l-0.754,2.007l-0.838,1.808l-0.754,1.205l-0.754,0.804l-0.754,0.402h-0.838l-0.754-0.402
		l-0.754-0.804l-0.754-1.205l-0.838-1.808l-0.754-2.007l-0.754-2.411l-0.838-2.61l-0.754-3.013l-0.754-3.414l-0.754-3.615
		l-0.838-3.816l-0.754-4.017l-0.754-4.217l-0.754-4.217l-0.84-4.418l-0.752-4.418l-0.756-4.418l-0.836-4.419l-0.754-4.217
		l-0.754-4.217l-0.754-4.017l-0.84-3.816l-0.752-3.614l-0.756-3.414l-0.752-3.012l-0.84-2.611l-0.754-2.41l-0.752-2.008l-0.84-1.808
		l-0.752-1.205l-0.756-0.804l-0.752-0.401h-0.84l-0.754,0.401l-0.754,0.804l-0.754,1.205l-0.838,1.808l-0.754,2.008l-0.754,2.41
		l-0.838,2.611l-0.754,3.012l-0.754,3.414l-0.754,3.614l-0.838,3.816l-0.754,4.017l-0.754,4.217l-0.754,4.217l-0.838,4.419
		l-0.754,4.418l-0.754,4.418l-0.838,4.418l-0.754,4.217l-0.754,4.217l-0.754,4.017l-0.838,3.816l-0.754,3.615l-0.754,3.414
		l-0.754,3.013l-0.838,2.61l-0.754,2.411l-0.754,2.007l-0.838,1.808l-0.754,1.205l-0.754,0.804l-0.756,0.402h-0.836l-0.754-0.402
		l-0.756-0.804l-0.752-1.205l-0.84-1.808l-0.752-2.007l-0.754-2.411l-0.838-2.61l-0.754-3.013l-0.756-3.414l-0.754-3.615
		l-0.838-3.816l-0.754-4.017l-0.754-4.217l-0.754-4.217l-0.838-4.418l-0.754-4.418"/>
</g>
</svg>
