<?xml version="1.0" encoding="UTF-8" standalone="no"?>
<!-- Created with Inkscape (http://www.inkscape.org/) -->

<svg
   xmlns:dc="http://purl.org/dc/elements/1.1/"
   xmlns:cc="http://creativecommons.org/ns#"
   xmlns:rdf="http://www.w3.org/1999/02/22-rdf-syntax-ns#"
   xmlns:svg="http://www.w3.org/2000/svg"
   xmlns="http://www.w3.org/2000/svg"
   xmlns:sodipodi="http://sodipodi.sourceforge.net/DTD/sodipodi-0.dtd"
   xmlns:inkscape="http://www.inkscape.org/namespaces/inkscape"
   width="110"
   height="20"
   id="svg2"
   version="1.1"
   inkscape:version="0.48.0 r9654"
   sodipodi:docname="ThinBraceUp.svg">
  <defs
     id="defs4" />
  <sodipodi:namedview
     id="base"
     pagecolor="#ffffff"
     bordercolor="#666666"
     borderopacity="1.0"
     inkscape:pageopacity="0.0"
     inkscape:pageshadow="2"
     inkscape:zoom="3"
     inkscape:cx="128.39934"
     inkscape:cy="48.5"
     inkscape:document-units="px"
     inkscape:current-layer="layer1"
     showgrid="false"
     inkscape:window-width="469"
     inkscape:window-height="455"
     inkscape:window-x="-8"
     inkscape:window-y="0"
     inkscape:window-maximized="1" />
  <metadata
     id="metadata7">
    <rdf:RDF>
      <cc:Work
         rdf:about="">
        <dc:format>image/svg+xml</dc:format>
        <dc:type
           rdf:resource="http://purl.org/dc/dcmitype/StillImage" />
        <dc:title />
      </cc:Work>
    </rdf:RDF>
  </metadata>
  <g
     inkscape:label="Layer 1"
     inkscape:groupmode="layer"
     id="layer1"
     transform="translate(0, -1032.36)">
    <g
       transform="matrix(0, -0.633725, -1.57797, 0, 0, 0)"
       style="font-size:78.59629822px;font-style:normal;font-weight:normal;line-height:125%;letter-spacing:0px;word-spacing:0px;fill:#000000;fill-opacity:1;stroke:none;font-family:Sans"
       id="text2987">
      <path
         d="m -1637.9508,-33.933505 c -2.6608,0.204705 -4.4518,1.074585 -5.3728,2.609643 -0.9211,1.535107 -1.3816,3.530714 -1.3816,5.986828 l 0,13.201722 c 0,4.5029135 -0.8187,7.6242477 -2.4561,9.3640117 -1.6374,1.7397562 -4.1959,2.60963622 -7.6754,2.60964267 l 0,-2.14911757 c 2.8655,-4.3e-6 4.8099,-0.7675455 5.8333,-2.3026259 1.0234,-1.5350844 1.5351,-3.6330304 1.5351,-6.2938439 l 0,-15.043823 c 0,-2.865468 0.6652,-5.014583 1.9956,-6.447353 1.3304,-1.432717 2.9166,-2.149089 4.7587,-2.149117 l 0,-0.614034 c -1.6374,2.9e-5 -3.1725,-0.614004 -4.6052,-1.8421 -1.4328,-1.228036 -2.1491,-3.47949 -2.1491,-6.75437 l 0,-15.043823 c 0,-2.865434 -0.5117,-5.01455 -1.5351,-6.447352 -1.0234,-1.432685 -2.9678,-2.149057 -5.8333,-2.149118 l 0,-2.149117 c 3.4795,6.3e-5 6.038,0.869943 7.6754,2.609643 1.6374,1.73982 2.4561,4.861154 2.4561,9.364012 l 0,13.201722 c 0,2.865525 0.5117,4.912301 1.5351,6.140335 1.0234,1.228098 2.7631,2.046809 5.2193,2.456135 z"
         style="font-variant:normal;font-stretch:normal;text-align:start;line-height:125%;text-anchor:start;font-family:NSimSun"
         id="path2985" />
    </g>
  </g>
</svg>
